M48
; DRILL file {KiCad 7.0.7} date Thu 12 Oct 2023 01:51:55 AM EEST
; FORMAT={-:-/ absolute / inch / decimal}
; #@! TF.CreationDate,2023-10-12T01:51:55+03:00
; #@! TF.GenerationSoftware,Kicad,Pcbnew,7.0.7
; #@! TF.FileFunction,Plated,1,2,PTH
FMAT,2
INCH
; #@! TA.AperFunction,Plated,PTH,ViaDrill
T1C0.0157
; #@! TA.AperFunction,Plated,PTH,ComponentDrill
T2C0.0315
; #@! TA.AperFunction,Plated,PTH,ComponentDrill
T3C0.0360
; #@! TA.AperFunction,Plated,PTH,ComponentDrill
T4C0.0472
%
G90
G05
T1
X2.7453Y-3.3245
X2.7646Y-2.7415
X2.7824Y-1.5553
X2.7993Y-2.5552
X2.8774Y-3.1581
X3.043Y-2.0409
X3.4022Y-2.7739
X3.4613Y-2.0083
X3.527Y-2.0327
X3.6483Y-1.7
X4.1191Y-1.8816
T2
X2.15Y-3.05
X2.2Y-1.35
X2.2Y-1.45
X2.2Y-1.55
X2.2Y-1.65
X2.2Y-1.75
X2.2Y-1.85
X2.2Y-1.95
X2.2Y-2.2
X2.2Y-2.3
X2.2Y-2.4
X2.2Y-2.5
X2.2Y-2.6
X2.2Y-2.7
X2.2Y-2.8
X2.2Y-3.25
X2.2Y-3.55
X2.25Y-3.05
X2.3Y-3.25
X2.3Y-3.55
X2.35Y-3.05
X2.4Y-3.25
X2.4Y-3.55
X2.45Y-3.05
X2.5Y-1.35
X2.5Y-1.45
X2.5Y-1.55
X2.5Y-1.65
X2.5Y-1.75
X2.5Y-1.85
X2.5Y-1.95
X2.5Y-2.2
X2.5Y-2.3
X2.5Y-2.4
X2.5Y-2.5
X2.5Y-2.6
X2.5Y-2.7
X2.5Y-2.8
X2.5Y-3.25
X2.5Y-3.55
X2.55Y-3.05
X2.6Y-3.25
X2.6Y-3.55
X2.65Y-3.05
X2.7Y-1.35
X2.7Y-1.45
X2.7Y-1.55
X2.7Y-1.65
X2.7Y-1.75
X2.7Y-1.85
X2.7Y-1.95
X2.7Y-2.1998
X2.7Y-2.2998
X2.7Y-2.3998
X2.7Y-2.4998
X2.7Y-2.5998
X2.7Y-2.6998
X2.7Y-2.7998
X2.7Y-3.25
X2.7Y-3.55
X2.75Y-3.05
X2.8Y-3.25
X2.8Y-3.55
X2.85Y-3.05
X2.9Y-3.25
X2.9Y-3.55
X2.95Y-3.05
X3.0Y-1.35
X3.0Y-1.45
X3.0Y-1.55
X3.0Y-1.65
X3.0Y-1.75
X3.0Y-1.85
X3.0Y-1.95
X3.0Y-2.1998
X3.0Y-2.2998
X3.0Y-2.3998
X3.0Y-2.4998
X3.0Y-2.5998
X3.0Y-2.6998
X3.0Y-2.7998
X3.1Y-3.05
X3.15Y-3.25
X3.15Y-3.55
X3.2Y-1.35
X3.2Y-1.45
X3.2Y-1.55
X3.2Y-1.65
X3.2Y-1.75
X3.2Y-1.85
X3.2Y-1.95
X3.2Y-2.1998
X3.2Y-2.2998
X3.2Y-2.3998
X3.2Y-2.4998
X3.2Y-2.5998
X3.2Y-2.6998
X3.2Y-2.7998
X3.2Y-3.05
X3.25Y-3.25
X3.25Y-3.55
X3.3Y-3.05
X3.35Y-3.25
X3.35Y-3.55
X3.4Y-3.05
X3.45Y-3.25
X3.45Y-3.55
X3.5Y-1.35
X3.5Y-1.45
X3.5Y-1.55
X3.5Y-1.65
X3.5Y-1.75
X3.5Y-1.85
X3.5Y-1.95
X3.5Y-2.1998
X3.5Y-2.2998
X3.5Y-2.3998
X3.5Y-2.4998
X3.5Y-2.5998
X3.5Y-2.6998
X3.5Y-2.7998
X3.5Y-3.05
X3.55Y-3.25
X3.55Y-3.55
X3.6Y-3.05
X3.65Y-3.25
X3.65Y-3.55
X3.7Y-1.35
X3.7Y-1.45
X3.7Y-1.55
X3.7Y-1.65
X3.7Y-1.75
X3.7Y-1.85
X3.7Y-1.95
X3.7Y-2.1998
X3.7Y-2.2998
X3.7Y-2.3998
X3.7Y-2.4998
X3.7Y-2.5998
X3.7Y-2.6998
X3.7Y-2.7998
X3.7Y-3.05
X3.75Y-3.25
X3.75Y-3.55
X3.8Y-3.05
X3.85Y-3.25
X3.85Y-3.55
X3.9Y-3.05
X4.0Y-1.35
X4.0Y-1.45
X4.0Y-1.55
X4.0Y-1.65
X4.0Y-1.75
X4.0Y-1.85
X4.0Y-1.95
X4.0Y-2.1998
X4.0Y-2.2998
X4.0Y-2.3998
X4.0Y-2.4998
X4.0Y-2.5998
X4.0Y-2.6998
X4.0Y-2.7998
X4.2Y-1.3502
X4.2Y-1.4502
X4.2Y-1.5502
X4.2Y-1.6502
X4.2Y-1.7502
X4.2Y-1.8502
X4.2Y-1.9502
X4.2Y-2.2
X4.2Y-2.3
X4.2Y-2.4
X4.2Y-2.5
X4.2Y-2.6
X4.2Y-2.7
X4.2Y-2.8
X4.2Y-3.05
X4.3Y-3.05
X4.4Y-3.05
X4.5Y-1.3502
X4.5Y-1.4502
X4.5Y-1.5502
X4.5Y-1.6502
X4.5Y-1.7502
X4.5Y-1.8502
X4.5Y-1.9502
X4.5Y-2.2
X4.5Y-2.3
X4.5Y-2.4
X4.5Y-2.5
X4.5Y-2.6
X4.5Y-2.7
X4.5Y-2.8
X4.5Y-3.05
X4.6Y-3.05
X4.7Y-3.05
X4.8Y-3.05
X4.9Y-3.05
X5.0Y-3.05
T3
X4.15Y-3.25
X4.15Y-3.55
X4.25Y-3.25
X4.25Y-3.55
X4.35Y-3.25
X4.35Y-3.55
X4.45Y-3.25
X4.45Y-3.55
X4.55Y-3.25
X4.55Y-3.55
X4.65Y-3.25
X4.65Y-3.55
X4.75Y-3.25
X4.75Y-3.55
X4.85Y-3.25
X4.85Y-3.55
X4.95Y-3.25
X4.95Y-3.55
X5.05Y-3.25
X5.05Y-3.55
T4
X4.8Y-2.05
X4.9Y-2.05
X5.0Y-2.05
T2
G00X4.711Y-1.5886
M15
G01X4.711Y-1.6752
M16
G05
G00X4.9433Y-1.5217
M15
G01X4.8567Y-1.5217
M16
G05
G00X4.9512Y-1.75
M15
G01X4.8488Y-1.75
M16
G05
T0
M30
