%TF.GenerationSoftware,KiCad,Pcbnew,7.0.7*%
%TF.CreationDate,2023-10-12T01:51:54+03:00*%
%TF.ProjectId,main,6d61696e-2e6b-4696-9361-645f70636258,rev?*%
%TF.SameCoordinates,Original*%
%TF.FileFunction,Copper,L1,Top*%
%TF.FilePolarity,Positive*%
%FSLAX46Y46*%
G04 Gerber Fmt 4.6, Leading zero omitted, Abs format (unit mm)*
G04 Created by KiCad (PCBNEW 7.0.7) date 2023-10-12 01:51:54*
%MOMM*%
%LPD*%
G01*
G04 APERTURE LIST*
%TA.AperFunction,ComponentPad*%
%ADD10R,4.400000X1.800000*%
%TD*%
%TA.AperFunction,ComponentPad*%
%ADD11O,4.000000X1.800000*%
%TD*%
%TA.AperFunction,ComponentPad*%
%ADD12O,1.800000X4.000000*%
%TD*%
%TA.AperFunction,ComponentPad*%
%ADD13R,1.600000X1.600000*%
%TD*%
%TA.AperFunction,ComponentPad*%
%ADD14O,1.600000X1.600000*%
%TD*%
%TA.AperFunction,ComponentPad*%
%ADD15R,1.905000X2.000000*%
%TD*%
%TA.AperFunction,ComponentPad*%
%ADD16O,1.905000X2.000000*%
%TD*%
%TA.AperFunction,ComponentPad*%
%ADD17R,2.032000X2.032000*%
%TD*%
%TA.AperFunction,ComponentPad*%
%ADD18C,2.032000*%
%TD*%
%TA.AperFunction,ViaPad*%
%ADD19C,0.800000*%
%TD*%
%TA.AperFunction,Conductor*%
%ADD20C,0.250000*%
%TD*%
G04 APERTURE END LIST*
D10*
%TO.P,J1,1*%
%TO.N,Net-(U1-IN)*%
X124460000Y-44450000D03*
D11*
%TO.P,J1,2*%
%TO.N,GND*%
X124460000Y-38650000D03*
D12*
%TO.P,J1,3*%
%TO.N,N/C*%
X119660000Y-41450000D03*
%TD*%
D13*
%TO.P,OR2,1*%
%TO.N,Net-(AND3-Pad3)*%
X93980000Y-55875000D03*
D14*
%TO.P,OR2,2*%
%TO.N,Net-(AND3-Pad6)*%
X93980000Y-58415000D03*
%TO.P,OR2,3*%
%TO.N,/full_adder4/C_{in}*%
X93980000Y-60955000D03*
%TO.P,OR2,4*%
%TO.N,Net-(AND3-Pad8)*%
X93980000Y-63495000D03*
%TO.P,OR2,5*%
%TO.N,Net-(AND3-Pad11)*%
X93980000Y-66035000D03*
%TO.P,OR2,6*%
%TO.N,/full_adder4/C_{out}*%
X93980000Y-68575000D03*
%TO.P,OR2,7,GND*%
%TO.N,GND*%
X93980000Y-71115000D03*
%TO.P,OR2,8*%
%TO.N,/full_adder6/C_{out}*%
X101600000Y-71115000D03*
%TO.P,OR2,9*%
%TO.N,Net-(AND4-Pad3)*%
X101600000Y-68575000D03*
%TO.P,OR2,10*%
%TO.N,Net-(AND4-Pad6)*%
X101600000Y-66035000D03*
%TO.P,OR2,11*%
%TO.N,/full_adder7/C_{out}*%
X101600000Y-63495000D03*
%TO.P,OR2,12*%
%TO.N,Net-(AND4-Pad8)*%
X101600000Y-60955000D03*
%TO.P,OR2,13*%
%TO.N,Net-(AND4-Pad11)*%
X101600000Y-58415000D03*
%TO.P,OR2,14,VCC*%
%TO.N,+5V*%
X101600000Y-55875000D03*
%TD*%
D13*
%TO.P,AND3,1*%
%TO.N,/full_adder3/C_{out}*%
X106680000Y-34295000D03*
D14*
%TO.P,AND3,2*%
%TO.N,Net-(AND3-Pad2)*%
X106680000Y-36835000D03*
%TO.P,AND3,3*%
%TO.N,Net-(AND3-Pad3)*%
X106680000Y-39375000D03*
%TO.P,AND3,4*%
%TO.N,A_{4}*%
X106680000Y-41915000D03*
%TO.P,AND3,5*%
%TO.N,B_{4}*%
X106680000Y-44455000D03*
%TO.P,AND3,6*%
%TO.N,Net-(AND3-Pad6)*%
X106680000Y-46995000D03*
%TO.P,AND3,7,GND*%
%TO.N,GND*%
X106680000Y-49535000D03*
%TO.P,AND3,8*%
%TO.N,Net-(AND3-Pad8)*%
X114300000Y-49535000D03*
%TO.P,AND3,9*%
%TO.N,/full_adder4/C_{in}*%
X114300000Y-46995000D03*
%TO.P,AND3,10*%
%TO.N,Net-(AND3-Pad10)*%
X114300000Y-44455000D03*
%TO.P,AND3,11*%
%TO.N,Net-(AND3-Pad11)*%
X114300000Y-41915000D03*
%TO.P,AND3,12*%
%TO.N,A_{5}*%
X114300000Y-39375000D03*
%TO.P,AND3,13*%
%TO.N,B_{5}*%
X114300000Y-36835000D03*
%TO.P,AND3,14,VCC*%
%TO.N,+5V*%
X114300000Y-34295000D03*
%TD*%
D13*
%TO.P,XOR3,1*%
%TO.N,A_{4}*%
X81280000Y-55875000D03*
D14*
%TO.P,XOR3,2*%
%TO.N,B_{4}*%
X81280000Y-58415000D03*
%TO.P,XOR3,3*%
%TO.N,Net-(AND3-Pad2)*%
X81280000Y-60955000D03*
%TO.P,XOR3,4*%
X81280000Y-63495000D03*
%TO.P,XOR3,5*%
%TO.N,/full_adder3/C_{out}*%
X81280000Y-66035000D03*
%TO.P,XOR3,6*%
%TO.N,C_{4}*%
X81280000Y-68575000D03*
%TO.P,XOR3,7,GND*%
%TO.N,GND*%
X81280000Y-71115000D03*
%TO.P,XOR3,8*%
%TO.N,Net-(AND3-Pad10)*%
X88900000Y-71115000D03*
%TO.P,XOR3,9*%
%TO.N,A_{5}*%
X88900000Y-68575000D03*
%TO.P,XOR3,10*%
%TO.N,B_{5}*%
X88900000Y-66035000D03*
%TO.P,XOR3,11*%
%TO.N,C_{5}*%
X88900000Y-63495000D03*
%TO.P,XOR3,12*%
%TO.N,Net-(AND3-Pad10)*%
X88900000Y-60955000D03*
%TO.P,XOR3,13*%
%TO.N,/full_adder4/C_{in}*%
X88900000Y-58415000D03*
%TO.P,XOR3,14,VCC*%
%TO.N,+5V*%
X88900000Y-55875000D03*
%TD*%
D15*
%TO.P,U1,1,IN*%
%TO.N,Net-(U1-IN)*%
X127000000Y-52070000D03*
D16*
%TO.P,U1,2,GND*%
%TO.N,GND*%
X124460000Y-52070000D03*
%TO.P,U1,3,OUT*%
%TO.N,+5V*%
X121920000Y-52070000D03*
%TD*%
D13*
%TO.P,SW2,1*%
%TO.N,+5V*%
X80010000Y-90170000D03*
D14*
%TO.P,SW2,2*%
X82550000Y-90170000D03*
%TO.P,SW2,3*%
X85090000Y-90170000D03*
%TO.P,SW2,4*%
X87630000Y-90170000D03*
%TO.P,SW2,5*%
X90170000Y-90170000D03*
%TO.P,SW2,6*%
X92710000Y-90170000D03*
%TO.P,SW2,7*%
X95250000Y-90170000D03*
%TO.P,SW2,8*%
X97790000Y-90170000D03*
%TO.P,SW2,9*%
%TO.N,B_{0}*%
X97790000Y-82550000D03*
%TO.P,SW2,10*%
%TO.N,B_{1}*%
X95250000Y-82550000D03*
%TO.P,SW2,11*%
%TO.N,B_{2}*%
X92710000Y-82550000D03*
%TO.P,SW2,12*%
%TO.N,B_{3}*%
X90170000Y-82550000D03*
%TO.P,SW2,13*%
%TO.N,B_{4}*%
X87630000Y-82550000D03*
%TO.P,SW2,14*%
%TO.N,B_{5}*%
X85090000Y-82550000D03*
%TO.P,SW2,15*%
%TO.N,B_{6}*%
X82550000Y-82550000D03*
%TO.P,SW2,16*%
%TO.N,B_{7}*%
X80010000Y-82550000D03*
%TD*%
D13*
%TO.P,RN2,1,common*%
%TO.N,GND*%
X99060000Y-77470000D03*
D14*
%TO.P,RN2,2,R1*%
%TO.N,B_{0}*%
X96520000Y-77470000D03*
%TO.P,RN2,3,R2*%
%TO.N,B_{1}*%
X93980000Y-77470000D03*
%TO.P,RN2,4,R3*%
%TO.N,B_{2}*%
X91440000Y-77470000D03*
%TO.P,RN2,5,R4*%
%TO.N,B_{3}*%
X88900000Y-77470000D03*
%TO.P,RN2,6,R5*%
%TO.N,B_{4}*%
X86360000Y-77470000D03*
%TO.P,RN2,7,R6*%
%TO.N,B_{5}*%
X83820000Y-77470000D03*
%TO.P,RN2,8,R7*%
%TO.N,B_{6}*%
X81280000Y-77470000D03*
%TO.P,RN2,9,R8*%
%TO.N,B_{7}*%
X78740000Y-77470000D03*
%TD*%
D13*
%TO.P,OR1,1*%
%TO.N,Net-(AND1-Pad3)*%
X68580000Y-34290000D03*
D14*
%TO.P,OR1,2*%
%TO.N,Net-(AND1-Pad6)*%
X68580000Y-36830000D03*
%TO.P,OR1,3*%
%TO.N,/full_adder/C_{out}*%
X68580000Y-39370000D03*
%TO.P,OR1,4*%
%TO.N,Net-(AND1-Pad8)*%
X68580000Y-41910000D03*
%TO.P,OR1,5*%
%TO.N,Net-(AND1-Pad11)*%
X68580000Y-44450000D03*
%TO.P,OR1,6*%
%TO.N,/full_adder1/C_{out}*%
X68580000Y-46990000D03*
%TO.P,OR1,7,GND*%
%TO.N,GND*%
X68580000Y-49530000D03*
%TO.P,OR1,8*%
%TO.N,/full_adder2/C_{out}*%
X76200000Y-49530000D03*
%TO.P,OR1,9*%
%TO.N,Net-(AND2-Pad3)*%
X76200000Y-46990000D03*
%TO.P,OR1,10*%
%TO.N,Net-(AND2-Pad6)*%
X76200000Y-44450000D03*
%TO.P,OR1,11*%
%TO.N,/full_adder3/C_{out}*%
X76200000Y-41910000D03*
%TO.P,OR1,12*%
%TO.N,Net-(AND2-Pad8)*%
X76200000Y-39370000D03*
%TO.P,OR1,13*%
%TO.N,Net-(AND2-Pad11)*%
X76200000Y-36830000D03*
%TO.P,OR1,14,VCC*%
%TO.N,+5V*%
X76200000Y-34290000D03*
%TD*%
D13*
%TO.P,SW1,1*%
%TO.N,+5V*%
X55880000Y-90170000D03*
D14*
%TO.P,SW1,2*%
X58420000Y-90170000D03*
%TO.P,SW1,3*%
X60960000Y-90170000D03*
%TO.P,SW1,4*%
X63500000Y-90170000D03*
%TO.P,SW1,5*%
X66040000Y-90170000D03*
%TO.P,SW1,6*%
X68580000Y-90170000D03*
%TO.P,SW1,7*%
X71120000Y-90170000D03*
%TO.P,SW1,8*%
X73660000Y-90170000D03*
%TO.P,SW1,9*%
%TO.N,A_{0}*%
X73660000Y-82550000D03*
%TO.P,SW1,10*%
%TO.N,A_{1}*%
X71120000Y-82550000D03*
%TO.P,SW1,11*%
%TO.N,A_{2}*%
X68580000Y-82550000D03*
%TO.P,SW1,12*%
%TO.N,A_{3}*%
X66040000Y-82550000D03*
%TO.P,SW1,13*%
%TO.N,A_{4}*%
X63500000Y-82550000D03*
%TO.P,SW1,14*%
%TO.N,A_{5}*%
X60960000Y-82550000D03*
%TO.P,SW1,15*%
%TO.N,A_{6}*%
X58420000Y-82550000D03*
%TO.P,SW1,16*%
%TO.N,A_{7}*%
X55880000Y-82550000D03*
%TD*%
D13*
%TO.P,RN1,1,common*%
%TO.N,GND*%
X74930000Y-77470000D03*
D14*
%TO.P,RN1,2,R1*%
%TO.N,A_{0}*%
X72390000Y-77470000D03*
%TO.P,RN1,3,R2*%
%TO.N,A_{1}*%
X69850000Y-77470000D03*
%TO.P,RN1,4,R3*%
%TO.N,A_{2}*%
X67310000Y-77470000D03*
%TO.P,RN1,5,R4*%
%TO.N,A_{3}*%
X64770000Y-77470000D03*
%TO.P,RN1,6,R5*%
%TO.N,A_{4}*%
X62230000Y-77470000D03*
%TO.P,RN1,7,R6*%
%TO.N,A_{5}*%
X59690000Y-77470000D03*
%TO.P,RN1,8,R7*%
%TO.N,A_{6}*%
X57150000Y-77470000D03*
%TO.P,RN1,9,R8*%
%TO.N,A_{7}*%
X54610000Y-77470000D03*
%TD*%
D13*
%TO.P,XOR2,1*%
%TO.N,A_{2}*%
X55880000Y-55880000D03*
D14*
%TO.P,XOR2,2*%
%TO.N,B_{2}*%
X55880000Y-58420000D03*
%TO.P,XOR2,3*%
%TO.N,Net-(AND2-Pad2)*%
X55880000Y-60960000D03*
%TO.P,XOR2,4*%
X55880000Y-63500000D03*
%TO.P,XOR2,5*%
%TO.N,/full_adder1/C_{out}*%
X55880000Y-66040000D03*
%TO.P,XOR2,6*%
%TO.N,C_{2}*%
X55880000Y-68580000D03*
%TO.P,XOR2,7,GND*%
%TO.N,GND*%
X55880000Y-71120000D03*
%TO.P,XOR2,8*%
%TO.N,Net-(AND2-Pad10)*%
X63500000Y-71120000D03*
%TO.P,XOR2,9*%
%TO.N,A_{3}*%
X63500000Y-68580000D03*
%TO.P,XOR2,10*%
%TO.N,B_{3}*%
X63500000Y-66040000D03*
%TO.P,XOR2,11*%
%TO.N,C_{3}*%
X63500000Y-63500000D03*
%TO.P,XOR2,12*%
%TO.N,Net-(AND2-Pad10)*%
X63500000Y-60960000D03*
%TO.P,XOR2,13*%
%TO.N,/full_adder2/C_{out}*%
X63500000Y-58420000D03*
%TO.P,XOR2,14,VCC*%
%TO.N,+5V*%
X63500000Y-55880000D03*
%TD*%
D17*
%TO.P,BAR1,1,A*%
%TO.N,C_{7}*%
X105410000Y-90170000D03*
D18*
%TO.P,BAR1,2,A*%
%TO.N,C_{6}*%
X107950000Y-90170000D03*
%TO.P,BAR1,3,A*%
%TO.N,C_{5}*%
X110490000Y-90170000D03*
%TO.P,BAR1,4,A*%
%TO.N,C_{4}*%
X113030000Y-90170000D03*
%TO.P,BAR1,5,A*%
%TO.N,C_{3}*%
X115570000Y-90170000D03*
%TO.P,BAR1,6,A*%
%TO.N,C_{2}*%
X118110000Y-90170000D03*
%TO.P,BAR1,7,A*%
%TO.N,C_{1}*%
X120650000Y-90170000D03*
%TO.P,BAR1,8,A*%
%TO.N,C_{0}*%
X123190000Y-90170000D03*
%TO.P,BAR1,9,A*%
%TO.N,unconnected-(BAR1-A-Pad9)*%
X125730000Y-90170000D03*
%TO.P,BAR1,10,A*%
%TO.N,unconnected-(BAR1-A-Pad10)*%
X128270000Y-90170000D03*
%TO.P,BAR1,11,K*%
%TO.N,unconnected-(BAR1-K-Pad11)*%
X128270000Y-82550000D03*
%TO.P,BAR1,12,K*%
%TO.N,unconnected-(BAR1-K-Pad12)*%
X125730000Y-82550000D03*
%TO.P,BAR1,13,K*%
%TO.N,Net-(RN3-R8)*%
X123190000Y-82550000D03*
%TO.P,BAR1,14,K*%
%TO.N,Net-(RN3-R7)*%
X120650000Y-82550000D03*
%TO.P,BAR1,15,K*%
%TO.N,Net-(RN3-R6)*%
X118110000Y-82550000D03*
%TO.P,BAR1,16,K*%
%TO.N,Net-(RN3-R5)*%
X115570000Y-82550000D03*
%TO.P,BAR1,17,K*%
%TO.N,Net-(RN3-R4)*%
X113030000Y-82550000D03*
%TO.P,BAR1,18,K*%
%TO.N,Net-(RN3-R3)*%
X110490000Y-82550000D03*
%TO.P,BAR1,19,K*%
%TO.N,Net-(RN3-R2)*%
X107950000Y-82550000D03*
%TO.P,BAR1,20,K*%
%TO.N,Net-(RN3-R1)*%
X105410000Y-82550000D03*
%TD*%
D13*
%TO.P,XOR4,1*%
%TO.N,A_{6}*%
X93980000Y-34290000D03*
D14*
%TO.P,XOR4,2*%
%TO.N,B_{6}*%
X93980000Y-36830000D03*
%TO.P,XOR4,3*%
%TO.N,Net-(AND4-Pad2)*%
X93980000Y-39370000D03*
%TO.P,XOR4,4*%
X93980000Y-41910000D03*
%TO.P,XOR4,5*%
%TO.N,/full_adder4/C_{out}*%
X93980000Y-44450000D03*
%TO.P,XOR4,6*%
%TO.N,C_{6}*%
X93980000Y-46990000D03*
%TO.P,XOR4,7,GND*%
%TO.N,GND*%
X93980000Y-49530000D03*
%TO.P,XOR4,8*%
%TO.N,Net-(AND4-Pad10)*%
X101600000Y-49530000D03*
%TO.P,XOR4,9*%
%TO.N,A_{7}*%
X101600000Y-46990000D03*
%TO.P,XOR4,10*%
%TO.N,B_{7}*%
X101600000Y-44450000D03*
%TO.P,XOR4,11*%
%TO.N,C_{7}*%
X101600000Y-41910000D03*
%TO.P,XOR4,12*%
%TO.N,Net-(AND4-Pad10)*%
X101600000Y-39370000D03*
%TO.P,XOR4,13*%
%TO.N,/full_adder6/C_{out}*%
X101600000Y-36830000D03*
%TO.P,XOR4,14,VCC*%
%TO.N,+5V*%
X101600000Y-34290000D03*
%TD*%
D13*
%TO.P,RN3,1,common*%
%TO.N,GND*%
X106680000Y-77470000D03*
D14*
%TO.P,RN3,2,R1*%
%TO.N,Net-(RN3-R1)*%
X109220000Y-77470000D03*
%TO.P,RN3,3,R2*%
%TO.N,Net-(RN3-R2)*%
X111760000Y-77470000D03*
%TO.P,RN3,4,R3*%
%TO.N,Net-(RN3-R3)*%
X114300000Y-77470000D03*
%TO.P,RN3,5,R4*%
%TO.N,Net-(RN3-R4)*%
X116840000Y-77470000D03*
%TO.P,RN3,6,R5*%
%TO.N,Net-(RN3-R5)*%
X119380000Y-77470000D03*
%TO.P,RN3,7,R6*%
%TO.N,Net-(RN3-R6)*%
X121920000Y-77470000D03*
%TO.P,RN3,8,R7*%
%TO.N,Net-(RN3-R7)*%
X124460000Y-77470000D03*
%TO.P,RN3,9,R8*%
%TO.N,Net-(RN3-R8)*%
X127000000Y-77470000D03*
%TD*%
D13*
%TO.P,XOR1,1*%
%TO.N,A_{0}*%
X55880000Y-34290000D03*
D14*
%TO.P,XOR1,2*%
%TO.N,B_{0}*%
X55880000Y-36830000D03*
%TO.P,XOR1,3*%
%TO.N,Net-(AND1-Pad2)*%
X55880000Y-39370000D03*
%TO.P,XOR1,4*%
X55880000Y-41910000D03*
%TO.P,XOR1,5*%
%TO.N,GND*%
X55880000Y-44450000D03*
%TO.P,XOR1,6*%
%TO.N,C_{0}*%
X55880000Y-46990000D03*
%TO.P,XOR1,7,GND*%
%TO.N,GND*%
X55880000Y-49530000D03*
%TO.P,XOR1,8*%
%TO.N,Net-(AND1-Pad10)*%
X63500000Y-49530000D03*
%TO.P,XOR1,9*%
%TO.N,A_{1}*%
X63500000Y-46990000D03*
%TO.P,XOR1,10*%
%TO.N,B_{1}*%
X63500000Y-44450000D03*
%TO.P,XOR1,11*%
%TO.N,C_{1}*%
X63500000Y-41910000D03*
%TO.P,XOR1,12*%
%TO.N,Net-(AND1-Pad10)*%
X63500000Y-39370000D03*
%TO.P,XOR1,13*%
%TO.N,/full_adder/C_{out}*%
X63500000Y-36830000D03*
%TO.P,XOR1,14,VCC*%
%TO.N,+5V*%
X63500000Y-34290000D03*
%TD*%
D13*
%TO.P,AND1,1*%
%TO.N,GND*%
X68580000Y-55875000D03*
D14*
%TO.P,AND1,2*%
%TO.N,Net-(AND1-Pad2)*%
X68580000Y-58415000D03*
%TO.P,AND1,3*%
%TO.N,Net-(AND1-Pad3)*%
X68580000Y-60955000D03*
%TO.P,AND1,4*%
%TO.N,A_{0}*%
X68580000Y-63495000D03*
%TO.P,AND1,5*%
%TO.N,B_{0}*%
X68580000Y-66035000D03*
%TO.P,AND1,6*%
%TO.N,Net-(AND1-Pad6)*%
X68580000Y-68575000D03*
%TO.P,AND1,7,GND*%
%TO.N,GND*%
X68580000Y-71115000D03*
%TO.P,AND1,8*%
%TO.N,Net-(AND1-Pad8)*%
X76200000Y-71115000D03*
%TO.P,AND1,9*%
%TO.N,/full_adder/C_{out}*%
X76200000Y-68575000D03*
%TO.P,AND1,10*%
%TO.N,Net-(AND1-Pad10)*%
X76200000Y-66035000D03*
%TO.P,AND1,11*%
%TO.N,Net-(AND1-Pad11)*%
X76200000Y-63495000D03*
%TO.P,AND1,12*%
%TO.N,A_{1}*%
X76200000Y-60955000D03*
%TO.P,AND1,13*%
%TO.N,B_{1}*%
X76200000Y-58415000D03*
%TO.P,AND1,14,VCC*%
%TO.N,+5V*%
X76200000Y-55875000D03*
%TD*%
D13*
%TO.P,AND4,1*%
%TO.N,/full_adder4/C_{out}*%
X106680000Y-55880000D03*
D14*
%TO.P,AND4,2*%
%TO.N,Net-(AND4-Pad2)*%
X106680000Y-58420000D03*
%TO.P,AND4,3*%
%TO.N,Net-(AND4-Pad3)*%
X106680000Y-60960000D03*
%TO.P,AND4,4*%
%TO.N,A_{6}*%
X106680000Y-63500000D03*
%TO.P,AND4,5*%
%TO.N,B_{6}*%
X106680000Y-66040000D03*
%TO.P,AND4,6*%
%TO.N,Net-(AND4-Pad6)*%
X106680000Y-68580000D03*
%TO.P,AND4,7,GND*%
%TO.N,GND*%
X106680000Y-71120000D03*
%TO.P,AND4,8*%
%TO.N,Net-(AND4-Pad8)*%
X114300000Y-71120000D03*
%TO.P,AND4,9*%
%TO.N,/full_adder6/C_{out}*%
X114300000Y-68580000D03*
%TO.P,AND4,10*%
%TO.N,Net-(AND4-Pad10)*%
X114300000Y-66040000D03*
%TO.P,AND4,11*%
%TO.N,Net-(AND4-Pad11)*%
X114300000Y-63500000D03*
%TO.P,AND4,12*%
%TO.N,A_{7}*%
X114300000Y-60960000D03*
%TO.P,AND4,13*%
%TO.N,B_{7}*%
X114300000Y-58420000D03*
%TO.P,AND4,14,VCC*%
%TO.N,+5V*%
X114300000Y-55880000D03*
%TD*%
D13*
%TO.P,AND2,1*%
%TO.N,/full_adder1/C_{out}*%
X81280000Y-34290000D03*
D14*
%TO.P,AND2,2*%
%TO.N,Net-(AND2-Pad2)*%
X81280000Y-36830000D03*
%TO.P,AND2,3*%
%TO.N,Net-(AND2-Pad3)*%
X81280000Y-39370000D03*
%TO.P,AND2,4*%
%TO.N,A_{2}*%
X81280000Y-41910000D03*
%TO.P,AND2,5*%
%TO.N,B_{2}*%
X81280000Y-44450000D03*
%TO.P,AND2,6*%
%TO.N,Net-(AND2-Pad6)*%
X81280000Y-46990000D03*
%TO.P,AND2,7,GND*%
%TO.N,GND*%
X81280000Y-49530000D03*
%TO.P,AND2,8*%
%TO.N,Net-(AND2-Pad8)*%
X88900000Y-49530000D03*
%TO.P,AND2,9*%
%TO.N,/full_adder2/C_{out}*%
X88900000Y-46990000D03*
%TO.P,AND2,10*%
%TO.N,Net-(AND2-Pad10)*%
X88900000Y-44450000D03*
%TO.P,AND2,11*%
%TO.N,Net-(AND2-Pad11)*%
X88900000Y-41910000D03*
%TO.P,AND2,12*%
%TO.N,A_{3}*%
X88900000Y-39370000D03*
%TO.P,AND2,13*%
%TO.N,B_{3}*%
X88900000Y-36830000D03*
%TO.P,AND2,14,VCC*%
%TO.N,+5V*%
X88900000Y-34290000D03*
%TD*%
D19*
%TO.N,B_{0}*%
X73086400Y-80215700D03*
%TO.N,Net-(AND1-Pad6)*%
X71102900Y-64902400D03*
%TO.N,/full_adder/C_{out}*%
X70673200Y-39505500D03*
%TO.N,A_{1}*%
X70220600Y-69633800D03*
%TO.N,+5V*%
X87915800Y-51011900D03*
%TO.N,/full_adder2/C_{out}*%
X77291900Y-51839200D03*
%TO.N,A_{3}*%
X89585800Y-51629800D03*
%TO.N,B_{5}*%
X104626400Y-47793300D03*
%TO.N,C_{0}*%
X69731500Y-84442200D03*
%TO.N,C_{5}*%
X86415000Y-70457400D03*
%TO.N,C_{7}*%
X92666600Y-43180000D03*
%TD*%
D20*
%TO.N,GND*%
X80103100Y-49530000D02*
X78909700Y-50723400D01*
X93980000Y-49530000D02*
X92803100Y-49530000D01*
X57056900Y-71120000D02*
X58238700Y-69938200D01*
X70945700Y-72303800D02*
X69756900Y-71115000D01*
X92803100Y-71115000D02*
X89260400Y-74657700D01*
X58238700Y-69938200D02*
X66226300Y-69938200D01*
X81280000Y-49530000D02*
X80103100Y-49530000D01*
X106680000Y-77470000D02*
X99060000Y-77470000D01*
X68580000Y-55875000D02*
X68580000Y-49530000D01*
X70950300Y-50723400D02*
X69756900Y-49530000D01*
X82560300Y-76293100D02*
X77283800Y-76293100D01*
X81280000Y-71115000D02*
X80103100Y-71115000D01*
X86472600Y-49530000D02*
X82456900Y-49530000D01*
X68580000Y-71115000D02*
X69756900Y-71115000D01*
X91612500Y-48339400D02*
X87663200Y-48339400D01*
X93980000Y-71115000D02*
X92803100Y-71115000D01*
X78914300Y-72303800D02*
X70945700Y-72303800D01*
X81280000Y-49530000D02*
X82456900Y-49530000D01*
X87663200Y-48339400D02*
X86472600Y-49530000D01*
X68580000Y-49530000D02*
X69756900Y-49530000D01*
X89260400Y-74657700D02*
X84195700Y-74657700D01*
X74930000Y-77470000D02*
X76106900Y-77470000D01*
X77283800Y-76293100D02*
X76106900Y-77470000D01*
X84195700Y-74657700D02*
X82560300Y-76293100D01*
X92803100Y-49530000D02*
X91612500Y-48339400D01*
X55880000Y-71120000D02*
X57056900Y-71120000D01*
X80103100Y-71115000D02*
X78914300Y-72303800D01*
X68580000Y-71115000D02*
X67403100Y-71115000D01*
X66226300Y-69938200D02*
X67403100Y-71115000D01*
X78909700Y-50723400D02*
X70950300Y-50723400D01*
%TO.N,B_{0}*%
X95343100Y-77837700D02*
X92965100Y-80215700D01*
X92965100Y-80215700D02*
X73086400Y-80215700D01*
X95343100Y-77470000D02*
X95343100Y-77837700D01*
X96520000Y-77470000D02*
X95343100Y-77470000D01*
%TO.N,Net-(AND1-Pad6)*%
X71102900Y-65243000D02*
X71102900Y-64902400D01*
X68580000Y-67398100D02*
X68947800Y-67398100D01*
X68580000Y-68575000D02*
X68580000Y-67398100D01*
X68947800Y-67398100D02*
X71102900Y-65243000D01*
%TO.N,/full_adder/C_{out}*%
X64676900Y-36830000D02*
X67216900Y-39370000D01*
X67216900Y-39370000D02*
X68580000Y-39370000D01*
X63500000Y-36830000D02*
X64676900Y-36830000D01*
X70673200Y-39505500D02*
X69892400Y-39505500D01*
X69892400Y-39505500D02*
X69756900Y-39370000D01*
X68580000Y-39370000D02*
X69756900Y-39370000D01*
%TO.N,A_{1}*%
X70220600Y-69633800D02*
X70220600Y-67745500D01*
X75834200Y-62131900D02*
X76200000Y-62131900D01*
X70220600Y-67745500D02*
X75834200Y-62131900D01*
X76200000Y-60955000D02*
X76200000Y-62131900D01*
%TO.N,+5V*%
X58420000Y-90170000D02*
X60960000Y-90170000D01*
X114300000Y-55880000D02*
X115476900Y-55880000D01*
X88900000Y-34290000D02*
X90076900Y-34290000D01*
X104507600Y-54703100D02*
X111946200Y-54703100D01*
X95250000Y-90170000D02*
X92710000Y-90170000D01*
X64676900Y-56247800D02*
X68059200Y-59630100D01*
X90170000Y-90170000D02*
X87630000Y-90170000D01*
X64676900Y-34290000D02*
X65853800Y-35466900D01*
X85090000Y-90170000D02*
X87630000Y-90170000D01*
X101600000Y-34290000D02*
X100423100Y-34290000D01*
X99246200Y-35466900D02*
X100423100Y-34290000D01*
X64676900Y-55880000D02*
X64676900Y-56247800D01*
X118889900Y-52070000D02*
X115476900Y-55483000D01*
X121920000Y-52070000D02*
X118889900Y-52070000D01*
X66040000Y-90170000D02*
X68580000Y-90170000D01*
X90076900Y-34290000D02*
X91253800Y-35466900D01*
X63500000Y-55880000D02*
X64676900Y-55880000D01*
X63500000Y-90170000D02*
X66040000Y-90170000D01*
X65853800Y-35466900D02*
X73846200Y-35466900D01*
X82550000Y-90170000D02*
X85090000Y-90170000D01*
X118889900Y-52070000D02*
X117055900Y-50236000D01*
X97790000Y-90170000D02*
X95250000Y-90170000D01*
X55880000Y-90170000D02*
X58420000Y-90170000D01*
X87915800Y-51011900D02*
X81752300Y-51011900D01*
X82550000Y-90170000D02*
X80010000Y-90170000D01*
X117055900Y-50236000D02*
X117055900Y-37862000D01*
X102776900Y-55875000D02*
X103335700Y-55875000D01*
X115476900Y-55483000D02*
X115476900Y-55880000D01*
X75611600Y-55875000D02*
X75023100Y-55875000D01*
X111946200Y-54703100D02*
X113123100Y-55880000D01*
X77376900Y-55387300D02*
X77376900Y-55875000D01*
X60960000Y-90170000D02*
X63500000Y-90170000D01*
X114665800Y-35471900D02*
X114300000Y-35471900D01*
X68059200Y-59630100D02*
X71268000Y-59630100D01*
X114300000Y-55880000D02*
X113123100Y-55880000D01*
X71268000Y-59630100D02*
X75023100Y-55875000D01*
X111946200Y-33118100D02*
X103948800Y-33118100D01*
X81752300Y-51011900D02*
X77376900Y-55387300D01*
X63500000Y-34290000D02*
X64676900Y-34290000D01*
X73660000Y-90170000D02*
X80010000Y-90170000D01*
X92710000Y-90170000D02*
X90170000Y-90170000D01*
X76200000Y-34290000D02*
X75023100Y-34290000D01*
X113123100Y-34295000D02*
X111946200Y-33118100D01*
X75611600Y-55875000D02*
X76200000Y-55875000D01*
X103335700Y-55875000D02*
X104507600Y-54703100D01*
X114300000Y-34295000D02*
X114300000Y-35471900D01*
X71120000Y-90170000D02*
X73660000Y-90170000D01*
X103948800Y-33118100D02*
X102776900Y-34290000D01*
X73846200Y-35466900D02*
X75023100Y-34290000D01*
X117055900Y-37862000D02*
X114665800Y-35471900D01*
X101600000Y-55875000D02*
X102776900Y-55875000D01*
X91253800Y-35466900D02*
X99246200Y-35466900D01*
X68580000Y-90170000D02*
X71120000Y-90170000D01*
X101600000Y-34290000D02*
X102776900Y-34290000D01*
X114300000Y-34295000D02*
X113123100Y-34295000D01*
X76200000Y-55875000D02*
X77376900Y-55875000D01*
%TO.N,/full_adder1/C_{out}*%
X57244600Y-63864300D02*
X56245800Y-64863100D01*
X56245800Y-64863100D02*
X55880000Y-64863100D01*
X57244600Y-59188600D02*
X57244600Y-63864300D01*
X68580000Y-48166900D02*
X68266300Y-48166900D01*
X68580000Y-46990000D02*
X68580000Y-48166900D01*
X68266300Y-48166900D02*
X57244600Y-59188600D01*
X55880000Y-66040000D02*
X55880000Y-64863100D01*
%TO.N,Net-(AND2-Pad2)*%
X70713300Y-40640000D02*
X68156800Y-40640000D01*
X63970600Y-45720000D02*
X63073000Y-45720000D01*
X54689400Y-58958300D02*
X55514200Y-59783100D01*
X68156800Y-40640000D02*
X66526200Y-42270600D01*
X78884000Y-35610900D02*
X75742400Y-35610900D01*
X54689400Y-54103600D02*
X54689400Y-58958300D01*
X80103100Y-36830000D02*
X78884000Y-35610900D01*
X66526200Y-42270600D02*
X66526200Y-43164400D01*
X63073000Y-45720000D02*
X54689400Y-54103600D01*
X81280000Y-36830000D02*
X80103100Y-36830000D01*
X55880000Y-60960000D02*
X55880000Y-63500000D01*
X75742400Y-35610900D02*
X70713300Y-40640000D01*
X55880000Y-60960000D02*
X55880000Y-59783100D01*
X66526200Y-43164400D02*
X63970600Y-45720000D01*
X55514200Y-59783100D02*
X55880000Y-59783100D01*
%TO.N,A_{2}*%
X68122200Y-43180000D02*
X76814600Y-43180000D01*
X66997800Y-44304400D02*
X68122200Y-43180000D01*
X79277100Y-42736000D02*
X80103100Y-41910000D01*
X77258600Y-42736000D02*
X79277100Y-42736000D01*
X76814600Y-43180000D02*
X77258600Y-42736000D01*
X62309600Y-48273500D02*
X63903300Y-48273500D01*
X66997800Y-45179000D02*
X66997800Y-44304400D01*
X63903300Y-48273500D02*
X66997800Y-45179000D01*
X55880000Y-55880000D02*
X55880000Y-54703100D01*
X81280000Y-41910000D02*
X80103100Y-41910000D01*
X55880000Y-54703100D02*
X62309600Y-48273500D01*
%TO.N,B_{2}*%
X81280000Y-44450000D02*
X80103100Y-44450000D01*
X78833100Y-45720000D02*
X68181000Y-45720000D01*
X68181000Y-45720000D02*
X66902700Y-46998300D01*
X66902700Y-48574200D02*
X57056900Y-58420000D01*
X80103100Y-44450000D02*
X78833100Y-45720000D01*
X55880000Y-58420000D02*
X57056900Y-58420000D01*
X66902700Y-46998300D02*
X66902700Y-48574200D01*
%TO.N,Net-(AND2-Pad6)*%
X81772800Y-43237900D02*
X82480600Y-43945700D01*
X77376900Y-44450000D02*
X78589000Y-43237900D01*
X78589000Y-43237900D02*
X81772800Y-43237900D01*
X82480600Y-44978300D02*
X81645800Y-45813100D01*
X81645800Y-45813100D02*
X81280000Y-45813100D01*
X81280000Y-46990000D02*
X81280000Y-45813100D01*
X82480600Y-43945700D02*
X82480600Y-44978300D01*
X76200000Y-44450000D02*
X77376900Y-44450000D01*
%TO.N,/full_adder2/C_{out}*%
X77376900Y-49530000D02*
X78553800Y-48353100D01*
X76200000Y-49530000D02*
X77376900Y-49530000D01*
X63500000Y-58420000D02*
X63500000Y-57243100D01*
X62303600Y-56412500D02*
X63134200Y-57243100D01*
X65231800Y-54668900D02*
X63032700Y-54668900D01*
X72066200Y-57064900D02*
X67627800Y-57064900D01*
X78553800Y-48353100D02*
X86360000Y-48353100D01*
X63134200Y-57243100D02*
X63500000Y-57243100D01*
X67627800Y-57064900D02*
X65231800Y-54668900D01*
X63032700Y-54668900D02*
X62303600Y-55398000D01*
X86360000Y-48353100D02*
X87723100Y-46990000D01*
X88900000Y-46990000D02*
X87723100Y-46990000D01*
X62303600Y-55398000D02*
X62303600Y-56412500D01*
X77291900Y-51839200D02*
X72066200Y-57064900D01*
%TO.N,Net-(AND2-Pad10)*%
X81772900Y-51788800D02*
X78186800Y-55374900D01*
X89242200Y-50784100D02*
X88237500Y-51788800D01*
X78186800Y-55374900D02*
X78186800Y-55789100D01*
X63500000Y-60960000D02*
X64676900Y-60960000D01*
X88900000Y-44450000D02*
X90076900Y-44450000D01*
X90076900Y-44450000D02*
X90076900Y-44817800D01*
X75399600Y-57145000D02*
X70407800Y-62136800D01*
X65853700Y-62136800D02*
X64676900Y-60960000D01*
X70407800Y-62136800D02*
X65853700Y-62136800D01*
X94395500Y-48260000D02*
X95190100Y-49054600D01*
X76830900Y-57145000D02*
X75399600Y-57145000D01*
X93519100Y-48260000D02*
X94395500Y-48260000D01*
X95190100Y-49999800D02*
X94405800Y-50784100D01*
X78186800Y-55789100D02*
X76830900Y-57145000D01*
X94405800Y-50784100D02*
X89242200Y-50784100D01*
X95190100Y-49054600D02*
X95190100Y-49999800D01*
X90076900Y-44817800D02*
X93519100Y-48260000D01*
X88237500Y-51788800D02*
X81772900Y-51788800D01*
%TO.N,Net-(AND2-Pad11)*%
X76200000Y-36830000D02*
X77376900Y-36830000D01*
X78553800Y-38006900D02*
X83820000Y-38006900D01*
X77376900Y-36830000D02*
X78553800Y-38006900D01*
X88900000Y-41910000D02*
X87723100Y-41910000D01*
X83820000Y-38006900D02*
X87723100Y-41910000D01*
%TO.N,A_{3}*%
X69334000Y-64765000D02*
X68126100Y-64765000D01*
X76615800Y-59685000D02*
X74414000Y-59685000D01*
X81980800Y-52290700D02*
X79503400Y-54768100D01*
X64676900Y-68214200D02*
X64676900Y-68580000D01*
X79503400Y-56797400D02*
X76615800Y-59685000D01*
X89585800Y-51629800D02*
X88924900Y-52290700D01*
X88924900Y-52290700D02*
X81980800Y-52290700D01*
X68126100Y-64765000D02*
X64676900Y-68214200D01*
X79503400Y-54768100D02*
X79503400Y-56797400D01*
X63500000Y-68580000D02*
X64676900Y-68580000D01*
X74414000Y-59685000D02*
X69334000Y-64765000D01*
%TO.N,B_{3}*%
X72610800Y-78810600D02*
X86748300Y-78810600D01*
X63500000Y-66040000D02*
X61162900Y-66040000D01*
X55340900Y-69938400D02*
X54700600Y-70578700D01*
X88900000Y-77470000D02*
X87723100Y-77470000D01*
X54700600Y-74238000D02*
X55880000Y-75417400D01*
X87723100Y-77835800D02*
X87723100Y-77470000D01*
X61162900Y-66040000D02*
X57264500Y-69938400D01*
X72233400Y-79188000D02*
X72610800Y-78810600D01*
X57182300Y-79188000D02*
X72233400Y-79188000D01*
X55880000Y-77885700D02*
X57182300Y-79188000D01*
X57264500Y-69938400D02*
X55340900Y-69938400D01*
X55880000Y-75417400D02*
X55880000Y-77885700D01*
X54700600Y-70578700D02*
X54700600Y-74238000D01*
X86748300Y-78810600D02*
X87723100Y-77835800D01*
%TO.N,/full_adder3/C_{out}*%
X105503100Y-34662800D02*
X105503100Y-34295000D01*
X82534800Y-40719400D02*
X84940500Y-43125100D01*
X106680000Y-34295000D02*
X105503100Y-34295000D01*
X89389700Y-43125100D02*
X91534600Y-40980200D01*
X84940500Y-43125100D02*
X89389700Y-43125100D01*
X76200000Y-41910000D02*
X77376900Y-41910000D01*
X91534600Y-40980200D02*
X91534600Y-40070900D01*
X78567500Y-40719400D02*
X82534800Y-40719400D01*
X77376900Y-41910000D02*
X78567500Y-40719400D01*
X93598600Y-38006900D02*
X102159000Y-38006900D01*
X102159000Y-38006900D02*
X105503100Y-34662800D01*
X91534600Y-40070900D02*
X93598600Y-38006900D01*
%TO.N,Net-(AND3-Pad2)*%
X102091700Y-43180000D02*
X101191100Y-43180000D01*
X101191100Y-43180000D02*
X98655800Y-45715300D01*
X80103100Y-58969100D02*
X80912100Y-59778100D01*
X105315400Y-39010700D02*
X105315400Y-39956300D01*
X80103100Y-54918900D02*
X80103100Y-58969100D01*
X94538300Y-51373200D02*
X91492900Y-51373200D01*
X80912100Y-59778100D02*
X81280000Y-59778100D01*
X98655800Y-45715300D02*
X98655800Y-47255700D01*
X105315400Y-39956300D02*
X102091700Y-43180000D01*
X82216300Y-52805700D02*
X80103100Y-54918900D01*
X91492900Y-51373200D02*
X90060400Y-52805700D01*
X106680000Y-38011900D02*
X106314200Y-38011900D01*
X106680000Y-36835000D02*
X106680000Y-38011900D01*
X98655800Y-47255700D02*
X94538300Y-51373200D01*
X90060400Y-52805700D02*
X82216300Y-52805700D01*
X81280000Y-60955000D02*
X81280000Y-59778100D01*
X106314200Y-38011900D02*
X105315400Y-39010700D01*
%TO.N,Net-(AND3-Pad3)*%
X106680000Y-39375000D02*
X106680000Y-40551900D01*
X99778800Y-51852600D02*
X102599400Y-51852600D01*
X95156900Y-55875000D02*
X95756400Y-55875000D01*
X93980000Y-55875000D02*
X95156900Y-55875000D01*
X95756400Y-55875000D02*
X99778800Y-51852600D01*
X107880500Y-47480100D02*
X107880500Y-41386600D01*
X107880500Y-41386600D02*
X107045800Y-40551900D01*
X102599400Y-51852600D02*
X106187000Y-48265000D01*
X107045800Y-40551900D02*
X106680000Y-40551900D01*
X106187000Y-48265000D02*
X107095600Y-48265000D01*
X107095600Y-48265000D02*
X107880500Y-47480100D01*
%TO.N,A_{4}*%
X82456900Y-55875000D02*
X85017700Y-53314200D01*
X102063900Y-45720000D02*
X105503100Y-42280800D01*
X100928500Y-45720000D02*
X102063900Y-45720000D01*
X85017700Y-53314200D02*
X90933000Y-53314200D01*
X90933000Y-53314200D02*
X92118400Y-52128800D01*
X105503100Y-42280800D02*
X105503100Y-41915000D01*
X81280000Y-55875000D02*
X82456900Y-55875000D01*
X92118400Y-52128800D02*
X94519700Y-52128800D01*
X94519700Y-52128800D02*
X100928500Y-45720000D01*
X106680000Y-41915000D02*
X105503100Y-41915000D01*
%TO.N,B_{4}*%
X87049300Y-53822600D02*
X91488000Y-53822600D01*
X81280000Y-58415000D02*
X82456900Y-58415000D01*
X82456900Y-58415000D02*
X87049300Y-53822600D01*
X102063900Y-48260000D02*
X105503100Y-44820800D01*
X106680000Y-44455000D02*
X105503100Y-44455000D01*
X91488000Y-53822600D02*
X92596400Y-52714200D01*
X99128500Y-48260000D02*
X102063900Y-48260000D01*
X94674300Y-52714200D02*
X99128500Y-48260000D01*
X92596400Y-52714200D02*
X94674300Y-52714200D01*
X105503100Y-44820800D02*
X105503100Y-44455000D01*
%TO.N,Net-(AND3-Pad6)*%
X102225700Y-51308900D02*
X105503100Y-48031500D01*
X106680000Y-46995000D02*
X105503100Y-46995000D01*
X105503100Y-48031500D02*
X105503100Y-46995000D01*
X93980000Y-57238100D02*
X93147700Y-57238100D01*
X92756100Y-54938200D02*
X93178200Y-54516100D01*
X99612600Y-51308900D02*
X102225700Y-51308900D01*
X93178200Y-54516100D02*
X96405400Y-54516100D01*
X93980000Y-58415000D02*
X93980000Y-57238100D01*
X96405400Y-54516100D02*
X99612600Y-51308900D01*
X93147700Y-57238100D02*
X92756100Y-56846500D01*
X92756100Y-56846500D02*
X92756100Y-54938200D01*
%TO.N,Net-(AND3-Pad8)*%
X94345800Y-62318100D02*
X97840900Y-58823000D01*
X114300000Y-49535000D02*
X113123100Y-49535000D01*
X103473000Y-53608300D02*
X103895200Y-53186100D01*
X97840900Y-58823000D02*
X97840900Y-57799700D01*
X100706100Y-53608300D02*
X103473000Y-53608300D01*
X93980000Y-62318100D02*
X94345800Y-62318100D01*
X98998100Y-56642500D02*
X98998100Y-55316300D01*
X93980000Y-63495000D02*
X93980000Y-62318100D01*
X97840900Y-57799700D02*
X98998100Y-56642500D01*
X103895200Y-53186100D02*
X109472000Y-53186100D01*
X109472000Y-53186100D02*
X113123100Y-49535000D01*
X98998100Y-55316300D02*
X100706100Y-53608300D01*
%TO.N,/full_adder4/C_{in}*%
X107433900Y-52684200D02*
X113123100Y-46995000D01*
X93980000Y-60955000D02*
X93980000Y-60950800D01*
X93980000Y-60950800D02*
X98496200Y-56434600D01*
X92612700Y-60950800D02*
X93980000Y-60950800D01*
X100498100Y-53106400D02*
X103265100Y-53106400D01*
X114300000Y-46995000D02*
X113123100Y-46995000D01*
X98496200Y-55108300D02*
X100498100Y-53106400D01*
X98496200Y-56434600D02*
X98496200Y-55108300D01*
X103265100Y-53106400D02*
X103687300Y-52684200D01*
X88900000Y-58415000D02*
X90076900Y-58415000D01*
X103687300Y-52684200D02*
X107433900Y-52684200D01*
X90076900Y-58415000D02*
X92612700Y-60950800D01*
%TO.N,Net-(AND3-Pad10)*%
X90598900Y-68605000D02*
X90598900Y-62065400D01*
X90598900Y-62065400D02*
X88900000Y-60366500D01*
X89265800Y-69938100D02*
X90598900Y-68605000D01*
X97738100Y-56364500D02*
X94484700Y-59617900D01*
X97738100Y-55154700D02*
X97738100Y-56364500D01*
X114300000Y-44455000D02*
X113123100Y-44455000D01*
X92503600Y-59617900D02*
X90106200Y-57220500D01*
X113123100Y-44455000D02*
X113123100Y-44820800D01*
X88900000Y-60955000D02*
X88900000Y-60366500D01*
X88332300Y-57220500D02*
X87683600Y-57869200D01*
X100288300Y-52604500D02*
X97738100Y-55154700D01*
X88900000Y-60366500D02*
X88900000Y-59778100D01*
X105761600Y-52182300D02*
X103479400Y-52182300D01*
X94484700Y-59617900D02*
X92503600Y-59617900D01*
X88532200Y-59778100D02*
X88900000Y-59778100D01*
X88900000Y-69938100D02*
X89265800Y-69938100D01*
X113123100Y-44820800D02*
X105761600Y-52182300D01*
X88900000Y-71115000D02*
X88900000Y-69938100D01*
X90106200Y-57220500D02*
X88332300Y-57220500D01*
X103479400Y-52182300D02*
X103057200Y-52604500D01*
X87683600Y-58929500D02*
X88532200Y-59778100D01*
X87683600Y-57869200D02*
X87683600Y-58929500D01*
X103057200Y-52604500D02*
X100288300Y-52604500D01*
%TO.N,Net-(AND3-Pad11)*%
X114667800Y-43091900D02*
X114300000Y-43091900D01*
X115484800Y-43908900D02*
X114667800Y-43091900D01*
X99674200Y-56676200D02*
X99674200Y-55364500D01*
X115484800Y-50030400D02*
X115484800Y-43908900D01*
X93980000Y-66035000D02*
X93980000Y-64858100D01*
X100928500Y-54110200D02*
X103680900Y-54110200D01*
X98489900Y-60714000D02*
X98489900Y-57860500D01*
X103680900Y-54110200D02*
X104094700Y-53696400D01*
X104094700Y-53696400D02*
X111818800Y-53696400D01*
X94345800Y-64858100D02*
X98489900Y-60714000D01*
X99674200Y-55364500D02*
X100928500Y-54110200D01*
X111818800Y-53696400D02*
X115484800Y-50030400D01*
X93980000Y-64858100D02*
X94345800Y-64858100D01*
X114300000Y-41915000D02*
X114300000Y-43091900D01*
X98489900Y-57860500D02*
X99674200Y-56676200D01*
%TO.N,A_{5}*%
X92316800Y-68530000D02*
X93634900Y-67211900D01*
X99516300Y-62166900D02*
X99516300Y-58083800D01*
X115994600Y-41880700D02*
X114665800Y-40551900D01*
X94471300Y-67211900D02*
X99516300Y-62166900D01*
X115994600Y-50247400D02*
X115994600Y-41880700D01*
X81276400Y-73550200D02*
X83199100Y-71627500D01*
X88353100Y-72307900D02*
X89429200Y-72307900D01*
X64418900Y-73550200D02*
X81276400Y-73550200D01*
X87672700Y-71627500D02*
X87672700Y-69802300D01*
X114300000Y-39375000D02*
X114300000Y-40551900D01*
X83199100Y-71627500D02*
X87672700Y-71627500D01*
X100238100Y-57362000D02*
X100238100Y-55542400D01*
X60866900Y-77470000D02*
X60866900Y-77102200D01*
X93634900Y-67211900D02*
X94471300Y-67211900D01*
X101168400Y-54612100D02*
X103888800Y-54612100D01*
X89429200Y-72307900D02*
X92316800Y-69420300D01*
X103888800Y-54612100D02*
X104302500Y-54198400D01*
X87672700Y-69802300D02*
X88900000Y-68575000D01*
X59690000Y-77470000D02*
X60866900Y-77470000D01*
X100238100Y-55542400D02*
X101168400Y-54612100D01*
X104302500Y-54198400D02*
X112043600Y-54198400D01*
X87672700Y-71627500D02*
X88353100Y-72307900D01*
X99516300Y-58083800D02*
X100238100Y-57362000D01*
X60866900Y-77102200D02*
X64418900Y-73550200D01*
X112043600Y-54198400D02*
X115994600Y-50247400D01*
X92316800Y-69420300D02*
X92316800Y-68530000D01*
X114665800Y-40551900D02*
X114300000Y-40551900D01*
%TO.N,B_{5}*%
X91694500Y-54325900D02*
X92302400Y-53718000D01*
X87179400Y-60913600D02*
X87179400Y-55889600D01*
X92302400Y-53718000D02*
X95397100Y-53718000D01*
X102047700Y-50777000D02*
X104626400Y-48198300D01*
X89302700Y-62225000D02*
X88490800Y-62225000D01*
X87179400Y-55889600D02*
X88743100Y-54325900D01*
X104626400Y-48198300D02*
X104626400Y-47793300D01*
X88490800Y-62225000D02*
X87179400Y-60913600D01*
X95397100Y-53718000D02*
X98338100Y-50777000D01*
X88743100Y-54325900D02*
X91694500Y-54325900D01*
X90086200Y-63008500D02*
X89302700Y-62225000D01*
X98338100Y-50777000D02*
X102047700Y-50777000D01*
X88900000Y-66035000D02*
X90086200Y-64848800D01*
X90086200Y-64848800D02*
X90086200Y-63008500D01*
%TO.N,/full_adder4/C_{out}*%
X101292400Y-57056900D02*
X104326200Y-57056900D01*
X106680000Y-55880000D02*
X105503100Y-55880000D01*
X100268300Y-62286700D02*
X100268300Y-58081000D01*
X100268300Y-58081000D02*
X101292400Y-57056900D01*
X93980000Y-68575000D02*
X100268300Y-62286700D01*
X104326200Y-57056900D02*
X105503100Y-55880000D01*
%TO.N,A_{6}*%
X66328600Y-74157300D02*
X63500000Y-76985900D01*
X63500000Y-77874700D02*
X62703700Y-78671000D01*
X105503100Y-63500000D02*
X104238100Y-64765000D01*
X89408400Y-73348400D02*
X83649500Y-73348400D01*
X106680000Y-63500000D02*
X105503100Y-63500000D01*
X99602400Y-64765000D02*
X94522400Y-69845000D01*
X82840600Y-74157300D02*
X66328600Y-74157300D01*
X83649500Y-73348400D02*
X82840600Y-74157300D01*
X94522400Y-69845000D02*
X92911800Y-69845000D01*
X59160100Y-78671000D02*
X58326900Y-77837800D01*
X63500000Y-76985900D02*
X63500000Y-77874700D01*
X57150000Y-77470000D02*
X58326900Y-77470000D01*
X92911800Y-69845000D02*
X89408400Y-73348400D01*
X58326900Y-77837800D02*
X58326900Y-77470000D01*
X62703700Y-78671000D02*
X59160100Y-78671000D01*
X104238100Y-64765000D02*
X99602400Y-64765000D01*
%TO.N,B_{6}*%
X92386600Y-75329700D02*
X100499400Y-67216900D01*
X84233500Y-75329700D02*
X92386600Y-75329700D01*
X81280000Y-77470000D02*
X82456900Y-77470000D01*
X100499400Y-67216900D02*
X104326200Y-67216900D01*
X106680000Y-66040000D02*
X105503100Y-66040000D01*
X82456900Y-77106300D02*
X84233500Y-75329700D01*
X104326200Y-67216900D02*
X105503100Y-66040000D01*
X82456900Y-77470000D02*
X82456900Y-77106300D01*
%TO.N,Net-(AND4-Pad8)*%
X113924800Y-67376500D02*
X114766700Y-67376500D01*
X104051900Y-62230000D02*
X108778300Y-62230000D01*
X114300000Y-71120000D02*
X114300000Y-69943100D01*
X115482200Y-69128700D02*
X114667800Y-69943100D01*
X101600000Y-60955000D02*
X102776900Y-60955000D01*
X115482200Y-68092000D02*
X115482200Y-69128700D01*
X114667800Y-69943100D02*
X114300000Y-69943100D01*
X114766700Y-67376500D02*
X115482200Y-68092000D01*
X108778300Y-62230000D02*
X113924800Y-67376500D01*
X102776900Y-60955000D02*
X104051900Y-62230000D01*
%TO.N,/full_adder6/C_{out}*%
X114300000Y-68580000D02*
X113123100Y-68580000D01*
X111946200Y-69756900D02*
X104135000Y-69756900D01*
X101600000Y-71115000D02*
X102776900Y-71115000D01*
X104135000Y-69756900D02*
X102776900Y-71115000D01*
X113123100Y-68580000D02*
X111946200Y-69756900D01*
%TO.N,Net-(AND4-Pad11)*%
X113123100Y-63500000D02*
X109313100Y-59690000D01*
X101600000Y-58415000D02*
X102776900Y-58415000D01*
X114300000Y-63500000D02*
X113123100Y-63500000D01*
X109313100Y-59690000D02*
X104051900Y-59690000D01*
X104051900Y-59690000D02*
X102776900Y-58415000D01*
%TO.N,A_{7}*%
X114300000Y-62136900D02*
X114665800Y-62136900D01*
X57601100Y-81637900D02*
X57056900Y-82182100D01*
X108754200Y-74996400D02*
X107511300Y-76239300D01*
X70818200Y-81373100D02*
X57865900Y-81373100D01*
X112143000Y-74996400D02*
X108754200Y-74996400D01*
X57056900Y-82182100D02*
X57056900Y-82550000D01*
X115992300Y-63463400D02*
X115992300Y-71147100D01*
X107511300Y-76239300D02*
X90923400Y-76239300D01*
X88701700Y-79358500D02*
X72832800Y-79358500D01*
X90923400Y-76239300D02*
X90170000Y-76992700D01*
X54610000Y-77470000D02*
X54610000Y-78646900D01*
X57865900Y-81373100D02*
X57601100Y-81637900D01*
X55880000Y-82550000D02*
X57056900Y-82550000D01*
X72832800Y-79358500D02*
X70818200Y-81373100D01*
X90170000Y-76992700D02*
X90170000Y-77890200D01*
X114665800Y-62136900D02*
X115992300Y-63463400D01*
X90170000Y-77890200D02*
X88701700Y-79358500D01*
X115992300Y-71147100D02*
X112143000Y-74996400D01*
X57601100Y-81637900D02*
X54610000Y-78646900D01*
X114300000Y-60960000D02*
X114300000Y-62136900D01*
%TO.N,B_{7}*%
X81186900Y-82550000D02*
X81186900Y-82182100D01*
X99841000Y-78646900D02*
X109707500Y-78646900D01*
X114300000Y-58420000D02*
X114300000Y-59596900D01*
X81995900Y-81373100D02*
X97114800Y-81373100D01*
X110396900Y-77957500D02*
X110396900Y-77096200D01*
X112275600Y-75675300D02*
X116498200Y-71452700D01*
X109707500Y-78646900D02*
X110396900Y-77957500D01*
X81186900Y-82182100D02*
X81995900Y-81373100D01*
X80010000Y-82550000D02*
X81186900Y-82550000D01*
X116498200Y-61429300D02*
X114665800Y-59596900D01*
X116498200Y-71452700D02*
X116498200Y-61429300D01*
X110396900Y-77096200D02*
X111817800Y-75675300D01*
X114665800Y-59596900D02*
X114300000Y-59596900D01*
X97114800Y-81373100D02*
X99841000Y-78646900D01*
X111817800Y-75675300D02*
X112275600Y-75675300D01*
%TO.N,C_{0}*%
X69731500Y-84442200D02*
X117462200Y-84442200D01*
X117462200Y-84442200D02*
X123190000Y-90170000D01*
%TO.N,C_{1}*%
X62302300Y-33741600D02*
X63449400Y-32594500D01*
X122044100Y-91564100D02*
X120650000Y-90170000D01*
X128872800Y-91564100D02*
X122044100Y-91564100D01*
X129674000Y-90762900D02*
X128872800Y-91564100D01*
X63500000Y-41910000D02*
X63500000Y-40733100D01*
X63132200Y-40733100D02*
X62302300Y-39903200D01*
X124065700Y-42212200D02*
X125890500Y-42212200D01*
X63500000Y-40733100D02*
X63132200Y-40733100D01*
X129674000Y-45995700D02*
X129674000Y-90762900D01*
X63449400Y-32594500D02*
X114448000Y-32594500D01*
X114448000Y-32594500D02*
X124065700Y-42212200D01*
X62302300Y-39903200D02*
X62302300Y-33741600D01*
X125890500Y-42212200D02*
X129674000Y-45995700D01*
%TO.N,C_{2}*%
X53430400Y-71029600D02*
X55880000Y-68580000D01*
X53430400Y-81772700D02*
X53430400Y-71029600D01*
X118110000Y-90170000D02*
X114915200Y-86975200D01*
X58632900Y-86975200D02*
X53430400Y-81772700D01*
X114915200Y-86975200D02*
X58632900Y-86975200D01*
%TO.N,C_{3}*%
X52928500Y-81996300D02*
X52928500Y-69852500D01*
X114177100Y-88777100D02*
X59709300Y-88777100D01*
X57979100Y-67310000D02*
X61789100Y-63500000D01*
X59709300Y-88777100D02*
X52928500Y-81996300D01*
X61789100Y-63500000D02*
X63500000Y-63500000D01*
X52928500Y-69852500D02*
X55471000Y-67310000D01*
X115570000Y-90170000D02*
X114177100Y-88777100D01*
X55471000Y-67310000D02*
X57979100Y-67310000D01*
%TO.N,C_{5}*%
X86415000Y-66789100D02*
X86415000Y-70457400D01*
X88532200Y-64671900D02*
X86415000Y-66789100D01*
X88900000Y-63495000D02*
X88900000Y-64671900D01*
X88900000Y-64671900D02*
X88532200Y-64671900D01*
%TO.N,C_{7}*%
X100423100Y-41910000D02*
X99153100Y-43180000D01*
X99153100Y-43180000D02*
X92666600Y-43180000D01*
X101600000Y-41910000D02*
X100423100Y-41910000D01*
%TO.N,Net-(RN3-R3)*%
X110490000Y-82456900D02*
X110490000Y-82550000D01*
X114300000Y-78646900D02*
X110490000Y-82456900D01*
X114300000Y-77470000D02*
X114300000Y-78646900D01*
%TO.N,Net-(U1-IN)*%
X124460000Y-44450000D02*
X124460000Y-45726900D01*
X127000000Y-48266900D02*
X124460000Y-45726900D01*
X127000000Y-52070000D02*
X127000000Y-48266900D01*
%TD*%
M02*
