%TF.GenerationSoftware,KiCad,Pcbnew,7.0.7*%
%TF.CreationDate,2023-10-12T01:51:54+03:00*%
%TF.ProjectId,main,6d61696e-2e6b-4696-9361-645f70636258,rev?*%
%TF.SameCoordinates,Original*%
%TF.FileFunction,Legend,Top*%
%TF.FilePolarity,Positive*%
%FSLAX46Y46*%
G04 Gerber Fmt 4.6, Leading zero omitted, Abs format (unit mm)*
G04 Created by KiCad (PCBNEW 7.0.7) date 2023-10-12 01:51:54*
%MOMM*%
%LPD*%
G01*
G04 APERTURE LIST*
%ADD10C,0.150000*%
%ADD11C,0.120000*%
G04 APERTURE END LIST*
D10*
X124126666Y-46404819D02*
X124126666Y-47119104D01*
X124126666Y-47119104D02*
X124079047Y-47261961D01*
X124079047Y-47261961D02*
X123983809Y-47357200D01*
X123983809Y-47357200D02*
X123840952Y-47404819D01*
X123840952Y-47404819D02*
X123745714Y-47404819D01*
X125126666Y-47404819D02*
X124555238Y-47404819D01*
X124840952Y-47404819D02*
X124840952Y-46404819D01*
X124840952Y-46404819D02*
X124745714Y-46547676D01*
X124745714Y-46547676D02*
X124650476Y-46642914D01*
X124650476Y-46642914D02*
X124555238Y-46690533D01*
X96718571Y-52999819D02*
X96909047Y-52999819D01*
X96909047Y-52999819D02*
X97004285Y-53047438D01*
X97004285Y-53047438D02*
X97099523Y-53142676D01*
X97099523Y-53142676D02*
X97147142Y-53333152D01*
X97147142Y-53333152D02*
X97147142Y-53666485D01*
X97147142Y-53666485D02*
X97099523Y-53856961D01*
X97099523Y-53856961D02*
X97004285Y-53952200D01*
X97004285Y-53952200D02*
X96909047Y-53999819D01*
X96909047Y-53999819D02*
X96718571Y-53999819D01*
X96718571Y-53999819D02*
X96623333Y-53952200D01*
X96623333Y-53952200D02*
X96528095Y-53856961D01*
X96528095Y-53856961D02*
X96480476Y-53666485D01*
X96480476Y-53666485D02*
X96480476Y-53333152D01*
X96480476Y-53333152D02*
X96528095Y-53142676D01*
X96528095Y-53142676D02*
X96623333Y-53047438D01*
X96623333Y-53047438D02*
X96718571Y-52999819D01*
X98147142Y-53999819D02*
X97813809Y-53523628D01*
X97575714Y-53999819D02*
X97575714Y-52999819D01*
X97575714Y-52999819D02*
X97956666Y-52999819D01*
X97956666Y-52999819D02*
X98051904Y-53047438D01*
X98051904Y-53047438D02*
X98099523Y-53095057D01*
X98099523Y-53095057D02*
X98147142Y-53190295D01*
X98147142Y-53190295D02*
X98147142Y-53333152D01*
X98147142Y-53333152D02*
X98099523Y-53428390D01*
X98099523Y-53428390D02*
X98051904Y-53476009D01*
X98051904Y-53476009D02*
X97956666Y-53523628D01*
X97956666Y-53523628D02*
X97575714Y-53523628D01*
X98528095Y-53095057D02*
X98575714Y-53047438D01*
X98575714Y-53047438D02*
X98670952Y-52999819D01*
X98670952Y-52999819D02*
X98909047Y-52999819D01*
X98909047Y-52999819D02*
X99004285Y-53047438D01*
X99004285Y-53047438D02*
X99051904Y-53095057D01*
X99051904Y-53095057D02*
X99099523Y-53190295D01*
X99099523Y-53190295D02*
X99099523Y-53285533D01*
X99099523Y-53285533D02*
X99051904Y-53428390D01*
X99051904Y-53428390D02*
X98480476Y-53999819D01*
X98480476Y-53999819D02*
X99099523Y-53999819D01*
X108751905Y-32134104D02*
X109228095Y-32134104D01*
X108656667Y-32419819D02*
X108990000Y-31419819D01*
X108990000Y-31419819D02*
X109323333Y-32419819D01*
X109656667Y-32419819D02*
X109656667Y-31419819D01*
X109656667Y-31419819D02*
X110228095Y-32419819D01*
X110228095Y-32419819D02*
X110228095Y-31419819D01*
X110704286Y-32419819D02*
X110704286Y-31419819D01*
X110704286Y-31419819D02*
X110942381Y-31419819D01*
X110942381Y-31419819D02*
X111085238Y-31467438D01*
X111085238Y-31467438D02*
X111180476Y-31562676D01*
X111180476Y-31562676D02*
X111228095Y-31657914D01*
X111228095Y-31657914D02*
X111275714Y-31848390D01*
X111275714Y-31848390D02*
X111275714Y-31991247D01*
X111275714Y-31991247D02*
X111228095Y-32181723D01*
X111228095Y-32181723D02*
X111180476Y-32276961D01*
X111180476Y-32276961D02*
X111085238Y-32372200D01*
X111085238Y-32372200D02*
X110942381Y-32419819D01*
X110942381Y-32419819D02*
X110704286Y-32419819D01*
X111609048Y-31419819D02*
X112228095Y-31419819D01*
X112228095Y-31419819D02*
X111894762Y-31800771D01*
X111894762Y-31800771D02*
X112037619Y-31800771D01*
X112037619Y-31800771D02*
X112132857Y-31848390D01*
X112132857Y-31848390D02*
X112180476Y-31896009D01*
X112180476Y-31896009D02*
X112228095Y-31991247D01*
X112228095Y-31991247D02*
X112228095Y-32229342D01*
X112228095Y-32229342D02*
X112180476Y-32324580D01*
X112180476Y-32324580D02*
X112132857Y-32372200D01*
X112132857Y-32372200D02*
X112037619Y-32419819D01*
X112037619Y-32419819D02*
X111751905Y-32419819D01*
X111751905Y-32419819D02*
X111656667Y-32372200D01*
X111656667Y-32372200D02*
X111609048Y-32324580D01*
X83256667Y-52999819D02*
X83923333Y-53999819D01*
X83923333Y-52999819D02*
X83256667Y-53999819D01*
X84494762Y-52999819D02*
X84685238Y-52999819D01*
X84685238Y-52999819D02*
X84780476Y-53047438D01*
X84780476Y-53047438D02*
X84875714Y-53142676D01*
X84875714Y-53142676D02*
X84923333Y-53333152D01*
X84923333Y-53333152D02*
X84923333Y-53666485D01*
X84923333Y-53666485D02*
X84875714Y-53856961D01*
X84875714Y-53856961D02*
X84780476Y-53952200D01*
X84780476Y-53952200D02*
X84685238Y-53999819D01*
X84685238Y-53999819D02*
X84494762Y-53999819D01*
X84494762Y-53999819D02*
X84399524Y-53952200D01*
X84399524Y-53952200D02*
X84304286Y-53856961D01*
X84304286Y-53856961D02*
X84256667Y-53666485D01*
X84256667Y-53666485D02*
X84256667Y-53333152D01*
X84256667Y-53333152D02*
X84304286Y-53142676D01*
X84304286Y-53142676D02*
X84399524Y-53047438D01*
X84399524Y-53047438D02*
X84494762Y-52999819D01*
X85923333Y-53999819D02*
X85590000Y-53523628D01*
X85351905Y-53999819D02*
X85351905Y-52999819D01*
X85351905Y-52999819D02*
X85732857Y-52999819D01*
X85732857Y-52999819D02*
X85828095Y-53047438D01*
X85828095Y-53047438D02*
X85875714Y-53095057D01*
X85875714Y-53095057D02*
X85923333Y-53190295D01*
X85923333Y-53190295D02*
X85923333Y-53333152D01*
X85923333Y-53333152D02*
X85875714Y-53428390D01*
X85875714Y-53428390D02*
X85828095Y-53476009D01*
X85828095Y-53476009D02*
X85732857Y-53523628D01*
X85732857Y-53523628D02*
X85351905Y-53523628D01*
X86256667Y-52999819D02*
X86875714Y-52999819D01*
X86875714Y-52999819D02*
X86542381Y-53380771D01*
X86542381Y-53380771D02*
X86685238Y-53380771D01*
X86685238Y-53380771D02*
X86780476Y-53428390D01*
X86780476Y-53428390D02*
X86828095Y-53476009D01*
X86828095Y-53476009D02*
X86875714Y-53571247D01*
X86875714Y-53571247D02*
X86875714Y-53809342D01*
X86875714Y-53809342D02*
X86828095Y-53904580D01*
X86828095Y-53904580D02*
X86780476Y-53952200D01*
X86780476Y-53952200D02*
X86685238Y-53999819D01*
X86685238Y-53999819D02*
X86399524Y-53999819D01*
X86399524Y-53999819D02*
X86304286Y-53952200D01*
X86304286Y-53952200D02*
X86256667Y-53904580D01*
X123698095Y-71744819D02*
X123698095Y-72554342D01*
X123698095Y-72554342D02*
X123745714Y-72649580D01*
X123745714Y-72649580D02*
X123793333Y-72697200D01*
X123793333Y-72697200D02*
X123888571Y-72744819D01*
X123888571Y-72744819D02*
X124079047Y-72744819D01*
X124079047Y-72744819D02*
X124174285Y-72697200D01*
X124174285Y-72697200D02*
X124221904Y-72649580D01*
X124221904Y-72649580D02*
X124269523Y-72554342D01*
X124269523Y-72554342D02*
X124269523Y-71744819D01*
X125269523Y-72744819D02*
X124698095Y-72744819D01*
X124983809Y-72744819D02*
X124983809Y-71744819D01*
X124983809Y-71744819D02*
X124888571Y-71887676D01*
X124888571Y-71887676D02*
X124793333Y-71982914D01*
X124793333Y-71982914D02*
X124698095Y-72030533D01*
X97726667Y-80417200D02*
X97869524Y-80464819D01*
X97869524Y-80464819D02*
X98107619Y-80464819D01*
X98107619Y-80464819D02*
X98202857Y-80417200D01*
X98202857Y-80417200D02*
X98250476Y-80369580D01*
X98250476Y-80369580D02*
X98298095Y-80274342D01*
X98298095Y-80274342D02*
X98298095Y-80179104D01*
X98298095Y-80179104D02*
X98250476Y-80083866D01*
X98250476Y-80083866D02*
X98202857Y-80036247D01*
X98202857Y-80036247D02*
X98107619Y-79988628D01*
X98107619Y-79988628D02*
X97917143Y-79941009D01*
X97917143Y-79941009D02*
X97821905Y-79893390D01*
X97821905Y-79893390D02*
X97774286Y-79845771D01*
X97774286Y-79845771D02*
X97726667Y-79750533D01*
X97726667Y-79750533D02*
X97726667Y-79655295D01*
X97726667Y-79655295D02*
X97774286Y-79560057D01*
X97774286Y-79560057D02*
X97821905Y-79512438D01*
X97821905Y-79512438D02*
X97917143Y-79464819D01*
X97917143Y-79464819D02*
X98155238Y-79464819D01*
X98155238Y-79464819D02*
X98298095Y-79512438D01*
X98631429Y-79464819D02*
X98869524Y-80464819D01*
X98869524Y-80464819D02*
X99060000Y-79750533D01*
X99060000Y-79750533D02*
X99250476Y-80464819D01*
X99250476Y-80464819D02*
X99488572Y-79464819D01*
X99821905Y-79560057D02*
X99869524Y-79512438D01*
X99869524Y-79512438D02*
X99964762Y-79464819D01*
X99964762Y-79464819D02*
X100202857Y-79464819D01*
X100202857Y-79464819D02*
X100298095Y-79512438D01*
X100298095Y-79512438D02*
X100345714Y-79560057D01*
X100345714Y-79560057D02*
X100393333Y-79655295D01*
X100393333Y-79655295D02*
X100393333Y-79750533D01*
X100393333Y-79750533D02*
X100345714Y-79893390D01*
X100345714Y-79893390D02*
X99774286Y-80464819D01*
X99774286Y-80464819D02*
X100393333Y-80464819D01*
X98369523Y-75384819D02*
X98036190Y-74908628D01*
X97798095Y-75384819D02*
X97798095Y-74384819D01*
X97798095Y-74384819D02*
X98179047Y-74384819D01*
X98179047Y-74384819D02*
X98274285Y-74432438D01*
X98274285Y-74432438D02*
X98321904Y-74480057D01*
X98321904Y-74480057D02*
X98369523Y-74575295D01*
X98369523Y-74575295D02*
X98369523Y-74718152D01*
X98369523Y-74718152D02*
X98321904Y-74813390D01*
X98321904Y-74813390D02*
X98274285Y-74861009D01*
X98274285Y-74861009D02*
X98179047Y-74908628D01*
X98179047Y-74908628D02*
X97798095Y-74908628D01*
X98798095Y-75384819D02*
X98798095Y-74384819D01*
X98798095Y-74384819D02*
X99369523Y-75384819D01*
X99369523Y-75384819D02*
X99369523Y-74384819D01*
X99798095Y-74480057D02*
X99845714Y-74432438D01*
X99845714Y-74432438D02*
X99940952Y-74384819D01*
X99940952Y-74384819D02*
X100179047Y-74384819D01*
X100179047Y-74384819D02*
X100274285Y-74432438D01*
X100274285Y-74432438D02*
X100321904Y-74480057D01*
X100321904Y-74480057D02*
X100369523Y-74575295D01*
X100369523Y-74575295D02*
X100369523Y-74670533D01*
X100369523Y-74670533D02*
X100321904Y-74813390D01*
X100321904Y-74813390D02*
X99750476Y-75384819D01*
X99750476Y-75384819D02*
X100369523Y-75384819D01*
X71318571Y-31414819D02*
X71509047Y-31414819D01*
X71509047Y-31414819D02*
X71604285Y-31462438D01*
X71604285Y-31462438D02*
X71699523Y-31557676D01*
X71699523Y-31557676D02*
X71747142Y-31748152D01*
X71747142Y-31748152D02*
X71747142Y-32081485D01*
X71747142Y-32081485D02*
X71699523Y-32271961D01*
X71699523Y-32271961D02*
X71604285Y-32367200D01*
X71604285Y-32367200D02*
X71509047Y-32414819D01*
X71509047Y-32414819D02*
X71318571Y-32414819D01*
X71318571Y-32414819D02*
X71223333Y-32367200D01*
X71223333Y-32367200D02*
X71128095Y-32271961D01*
X71128095Y-32271961D02*
X71080476Y-32081485D01*
X71080476Y-32081485D02*
X71080476Y-31748152D01*
X71080476Y-31748152D02*
X71128095Y-31557676D01*
X71128095Y-31557676D02*
X71223333Y-31462438D01*
X71223333Y-31462438D02*
X71318571Y-31414819D01*
X72747142Y-32414819D02*
X72413809Y-31938628D01*
X72175714Y-32414819D02*
X72175714Y-31414819D01*
X72175714Y-31414819D02*
X72556666Y-31414819D01*
X72556666Y-31414819D02*
X72651904Y-31462438D01*
X72651904Y-31462438D02*
X72699523Y-31510057D01*
X72699523Y-31510057D02*
X72747142Y-31605295D01*
X72747142Y-31605295D02*
X72747142Y-31748152D01*
X72747142Y-31748152D02*
X72699523Y-31843390D01*
X72699523Y-31843390D02*
X72651904Y-31891009D01*
X72651904Y-31891009D02*
X72556666Y-31938628D01*
X72556666Y-31938628D02*
X72175714Y-31938628D01*
X73699523Y-32414819D02*
X73128095Y-32414819D01*
X73413809Y-32414819D02*
X73413809Y-31414819D01*
X73413809Y-31414819D02*
X73318571Y-31557676D01*
X73318571Y-31557676D02*
X73223333Y-31652914D01*
X73223333Y-31652914D02*
X73128095Y-31700533D01*
X73596667Y-80417200D02*
X73739524Y-80464819D01*
X73739524Y-80464819D02*
X73977619Y-80464819D01*
X73977619Y-80464819D02*
X74072857Y-80417200D01*
X74072857Y-80417200D02*
X74120476Y-80369580D01*
X74120476Y-80369580D02*
X74168095Y-80274342D01*
X74168095Y-80274342D02*
X74168095Y-80179104D01*
X74168095Y-80179104D02*
X74120476Y-80083866D01*
X74120476Y-80083866D02*
X74072857Y-80036247D01*
X74072857Y-80036247D02*
X73977619Y-79988628D01*
X73977619Y-79988628D02*
X73787143Y-79941009D01*
X73787143Y-79941009D02*
X73691905Y-79893390D01*
X73691905Y-79893390D02*
X73644286Y-79845771D01*
X73644286Y-79845771D02*
X73596667Y-79750533D01*
X73596667Y-79750533D02*
X73596667Y-79655295D01*
X73596667Y-79655295D02*
X73644286Y-79560057D01*
X73644286Y-79560057D02*
X73691905Y-79512438D01*
X73691905Y-79512438D02*
X73787143Y-79464819D01*
X73787143Y-79464819D02*
X74025238Y-79464819D01*
X74025238Y-79464819D02*
X74168095Y-79512438D01*
X74501429Y-79464819D02*
X74739524Y-80464819D01*
X74739524Y-80464819D02*
X74930000Y-79750533D01*
X74930000Y-79750533D02*
X75120476Y-80464819D01*
X75120476Y-80464819D02*
X75358572Y-79464819D01*
X76263333Y-80464819D02*
X75691905Y-80464819D01*
X75977619Y-80464819D02*
X75977619Y-79464819D01*
X75977619Y-79464819D02*
X75882381Y-79607676D01*
X75882381Y-79607676D02*
X75787143Y-79702914D01*
X75787143Y-79702914D02*
X75691905Y-79750533D01*
X74239523Y-75384819D02*
X73906190Y-74908628D01*
X73668095Y-75384819D02*
X73668095Y-74384819D01*
X73668095Y-74384819D02*
X74049047Y-74384819D01*
X74049047Y-74384819D02*
X74144285Y-74432438D01*
X74144285Y-74432438D02*
X74191904Y-74480057D01*
X74191904Y-74480057D02*
X74239523Y-74575295D01*
X74239523Y-74575295D02*
X74239523Y-74718152D01*
X74239523Y-74718152D02*
X74191904Y-74813390D01*
X74191904Y-74813390D02*
X74144285Y-74861009D01*
X74144285Y-74861009D02*
X74049047Y-74908628D01*
X74049047Y-74908628D02*
X73668095Y-74908628D01*
X74668095Y-75384819D02*
X74668095Y-74384819D01*
X74668095Y-74384819D02*
X75239523Y-75384819D01*
X75239523Y-75384819D02*
X75239523Y-74384819D01*
X76239523Y-75384819D02*
X75668095Y-75384819D01*
X75953809Y-75384819D02*
X75953809Y-74384819D01*
X75953809Y-74384819D02*
X75858571Y-74527676D01*
X75858571Y-74527676D02*
X75763333Y-74622914D01*
X75763333Y-74622914D02*
X75668095Y-74670533D01*
X57856667Y-53004819D02*
X58523333Y-54004819D01*
X58523333Y-53004819D02*
X57856667Y-54004819D01*
X59094762Y-53004819D02*
X59285238Y-53004819D01*
X59285238Y-53004819D02*
X59380476Y-53052438D01*
X59380476Y-53052438D02*
X59475714Y-53147676D01*
X59475714Y-53147676D02*
X59523333Y-53338152D01*
X59523333Y-53338152D02*
X59523333Y-53671485D01*
X59523333Y-53671485D02*
X59475714Y-53861961D01*
X59475714Y-53861961D02*
X59380476Y-53957200D01*
X59380476Y-53957200D02*
X59285238Y-54004819D01*
X59285238Y-54004819D02*
X59094762Y-54004819D01*
X59094762Y-54004819D02*
X58999524Y-53957200D01*
X58999524Y-53957200D02*
X58904286Y-53861961D01*
X58904286Y-53861961D02*
X58856667Y-53671485D01*
X58856667Y-53671485D02*
X58856667Y-53338152D01*
X58856667Y-53338152D02*
X58904286Y-53147676D01*
X58904286Y-53147676D02*
X58999524Y-53052438D01*
X58999524Y-53052438D02*
X59094762Y-53004819D01*
X60523333Y-54004819D02*
X60190000Y-53528628D01*
X59951905Y-54004819D02*
X59951905Y-53004819D01*
X59951905Y-53004819D02*
X60332857Y-53004819D01*
X60332857Y-53004819D02*
X60428095Y-53052438D01*
X60428095Y-53052438D02*
X60475714Y-53100057D01*
X60475714Y-53100057D02*
X60523333Y-53195295D01*
X60523333Y-53195295D02*
X60523333Y-53338152D01*
X60523333Y-53338152D02*
X60475714Y-53433390D01*
X60475714Y-53433390D02*
X60428095Y-53481009D01*
X60428095Y-53481009D02*
X60332857Y-53528628D01*
X60332857Y-53528628D02*
X59951905Y-53528628D01*
X60904286Y-53100057D02*
X60951905Y-53052438D01*
X60951905Y-53052438D02*
X61047143Y-53004819D01*
X61047143Y-53004819D02*
X61285238Y-53004819D01*
X61285238Y-53004819D02*
X61380476Y-53052438D01*
X61380476Y-53052438D02*
X61428095Y-53100057D01*
X61428095Y-53100057D02*
X61475714Y-53195295D01*
X61475714Y-53195295D02*
X61475714Y-53290533D01*
X61475714Y-53290533D02*
X61428095Y-53433390D01*
X61428095Y-53433390D02*
X60856667Y-54004819D01*
X60856667Y-54004819D02*
X61475714Y-54004819D01*
X126936666Y-79941009D02*
X127079523Y-79988628D01*
X127079523Y-79988628D02*
X127127142Y-80036247D01*
X127127142Y-80036247D02*
X127174761Y-80131485D01*
X127174761Y-80131485D02*
X127174761Y-80274342D01*
X127174761Y-80274342D02*
X127127142Y-80369580D01*
X127127142Y-80369580D02*
X127079523Y-80417200D01*
X127079523Y-80417200D02*
X126984285Y-80464819D01*
X126984285Y-80464819D02*
X126603333Y-80464819D01*
X126603333Y-80464819D02*
X126603333Y-79464819D01*
X126603333Y-79464819D02*
X126936666Y-79464819D01*
X126936666Y-79464819D02*
X127031904Y-79512438D01*
X127031904Y-79512438D02*
X127079523Y-79560057D01*
X127079523Y-79560057D02*
X127127142Y-79655295D01*
X127127142Y-79655295D02*
X127127142Y-79750533D01*
X127127142Y-79750533D02*
X127079523Y-79845771D01*
X127079523Y-79845771D02*
X127031904Y-79893390D01*
X127031904Y-79893390D02*
X126936666Y-79941009D01*
X126936666Y-79941009D02*
X126603333Y-79941009D01*
X127555714Y-80179104D02*
X128031904Y-80179104D01*
X127460476Y-80464819D02*
X127793809Y-79464819D01*
X127793809Y-79464819D02*
X128127142Y-80464819D01*
X129031904Y-80464819D02*
X128698571Y-79988628D01*
X128460476Y-80464819D02*
X128460476Y-79464819D01*
X128460476Y-79464819D02*
X128841428Y-79464819D01*
X128841428Y-79464819D02*
X128936666Y-79512438D01*
X128936666Y-79512438D02*
X128984285Y-79560057D01*
X128984285Y-79560057D02*
X129031904Y-79655295D01*
X129031904Y-79655295D02*
X129031904Y-79798152D01*
X129031904Y-79798152D02*
X128984285Y-79893390D01*
X128984285Y-79893390D02*
X128936666Y-79941009D01*
X128936666Y-79941009D02*
X128841428Y-79988628D01*
X128841428Y-79988628D02*
X128460476Y-79988628D01*
X129984285Y-80464819D02*
X129412857Y-80464819D01*
X129698571Y-80464819D02*
X129698571Y-79464819D01*
X129698571Y-79464819D02*
X129603333Y-79607676D01*
X129603333Y-79607676D02*
X129508095Y-79702914D01*
X129508095Y-79702914D02*
X129412857Y-79750533D01*
X95956667Y-31414819D02*
X96623333Y-32414819D01*
X96623333Y-31414819D02*
X95956667Y-32414819D01*
X97194762Y-31414819D02*
X97385238Y-31414819D01*
X97385238Y-31414819D02*
X97480476Y-31462438D01*
X97480476Y-31462438D02*
X97575714Y-31557676D01*
X97575714Y-31557676D02*
X97623333Y-31748152D01*
X97623333Y-31748152D02*
X97623333Y-32081485D01*
X97623333Y-32081485D02*
X97575714Y-32271961D01*
X97575714Y-32271961D02*
X97480476Y-32367200D01*
X97480476Y-32367200D02*
X97385238Y-32414819D01*
X97385238Y-32414819D02*
X97194762Y-32414819D01*
X97194762Y-32414819D02*
X97099524Y-32367200D01*
X97099524Y-32367200D02*
X97004286Y-32271961D01*
X97004286Y-32271961D02*
X96956667Y-32081485D01*
X96956667Y-32081485D02*
X96956667Y-31748152D01*
X96956667Y-31748152D02*
X97004286Y-31557676D01*
X97004286Y-31557676D02*
X97099524Y-31462438D01*
X97099524Y-31462438D02*
X97194762Y-31414819D01*
X98623333Y-32414819D02*
X98290000Y-31938628D01*
X98051905Y-32414819D02*
X98051905Y-31414819D01*
X98051905Y-31414819D02*
X98432857Y-31414819D01*
X98432857Y-31414819D02*
X98528095Y-31462438D01*
X98528095Y-31462438D02*
X98575714Y-31510057D01*
X98575714Y-31510057D02*
X98623333Y-31605295D01*
X98623333Y-31605295D02*
X98623333Y-31748152D01*
X98623333Y-31748152D02*
X98575714Y-31843390D01*
X98575714Y-31843390D02*
X98528095Y-31891009D01*
X98528095Y-31891009D02*
X98432857Y-31938628D01*
X98432857Y-31938628D02*
X98051905Y-31938628D01*
X99480476Y-31748152D02*
X99480476Y-32414819D01*
X99242381Y-31367200D02*
X99004286Y-32081485D01*
X99004286Y-32081485D02*
X99623333Y-32081485D01*
X126309523Y-75524819D02*
X125976190Y-75048628D01*
X125738095Y-75524819D02*
X125738095Y-74524819D01*
X125738095Y-74524819D02*
X126119047Y-74524819D01*
X126119047Y-74524819D02*
X126214285Y-74572438D01*
X126214285Y-74572438D02*
X126261904Y-74620057D01*
X126261904Y-74620057D02*
X126309523Y-74715295D01*
X126309523Y-74715295D02*
X126309523Y-74858152D01*
X126309523Y-74858152D02*
X126261904Y-74953390D01*
X126261904Y-74953390D02*
X126214285Y-75001009D01*
X126214285Y-75001009D02*
X126119047Y-75048628D01*
X126119047Y-75048628D02*
X125738095Y-75048628D01*
X126738095Y-75524819D02*
X126738095Y-74524819D01*
X126738095Y-74524819D02*
X127309523Y-75524819D01*
X127309523Y-75524819D02*
X127309523Y-74524819D01*
X127690476Y-74524819D02*
X128309523Y-74524819D01*
X128309523Y-74524819D02*
X127976190Y-74905771D01*
X127976190Y-74905771D02*
X128119047Y-74905771D01*
X128119047Y-74905771D02*
X128214285Y-74953390D01*
X128214285Y-74953390D02*
X128261904Y-75001009D01*
X128261904Y-75001009D02*
X128309523Y-75096247D01*
X128309523Y-75096247D02*
X128309523Y-75334342D01*
X128309523Y-75334342D02*
X128261904Y-75429580D01*
X128261904Y-75429580D02*
X128214285Y-75477200D01*
X128214285Y-75477200D02*
X128119047Y-75524819D01*
X128119047Y-75524819D02*
X127833333Y-75524819D01*
X127833333Y-75524819D02*
X127738095Y-75477200D01*
X127738095Y-75477200D02*
X127690476Y-75429580D01*
X57856667Y-31414819D02*
X58523333Y-32414819D01*
X58523333Y-31414819D02*
X57856667Y-32414819D01*
X59094762Y-31414819D02*
X59285238Y-31414819D01*
X59285238Y-31414819D02*
X59380476Y-31462438D01*
X59380476Y-31462438D02*
X59475714Y-31557676D01*
X59475714Y-31557676D02*
X59523333Y-31748152D01*
X59523333Y-31748152D02*
X59523333Y-32081485D01*
X59523333Y-32081485D02*
X59475714Y-32271961D01*
X59475714Y-32271961D02*
X59380476Y-32367200D01*
X59380476Y-32367200D02*
X59285238Y-32414819D01*
X59285238Y-32414819D02*
X59094762Y-32414819D01*
X59094762Y-32414819D02*
X58999524Y-32367200D01*
X58999524Y-32367200D02*
X58904286Y-32271961D01*
X58904286Y-32271961D02*
X58856667Y-32081485D01*
X58856667Y-32081485D02*
X58856667Y-31748152D01*
X58856667Y-31748152D02*
X58904286Y-31557676D01*
X58904286Y-31557676D02*
X58999524Y-31462438D01*
X58999524Y-31462438D02*
X59094762Y-31414819D01*
X60523333Y-32414819D02*
X60190000Y-31938628D01*
X59951905Y-32414819D02*
X59951905Y-31414819D01*
X59951905Y-31414819D02*
X60332857Y-31414819D01*
X60332857Y-31414819D02*
X60428095Y-31462438D01*
X60428095Y-31462438D02*
X60475714Y-31510057D01*
X60475714Y-31510057D02*
X60523333Y-31605295D01*
X60523333Y-31605295D02*
X60523333Y-31748152D01*
X60523333Y-31748152D02*
X60475714Y-31843390D01*
X60475714Y-31843390D02*
X60428095Y-31891009D01*
X60428095Y-31891009D02*
X60332857Y-31938628D01*
X60332857Y-31938628D02*
X59951905Y-31938628D01*
X61475714Y-32414819D02*
X60904286Y-32414819D01*
X61190000Y-32414819D02*
X61190000Y-31414819D01*
X61190000Y-31414819D02*
X61094762Y-31557676D01*
X61094762Y-31557676D02*
X60999524Y-31652914D01*
X60999524Y-31652914D02*
X60904286Y-31700533D01*
X70651905Y-53714104D02*
X71128095Y-53714104D01*
X70556667Y-53999819D02*
X70890000Y-52999819D01*
X70890000Y-52999819D02*
X71223333Y-53999819D01*
X71556667Y-53999819D02*
X71556667Y-52999819D01*
X71556667Y-52999819D02*
X72128095Y-53999819D01*
X72128095Y-53999819D02*
X72128095Y-52999819D01*
X72604286Y-53999819D02*
X72604286Y-52999819D01*
X72604286Y-52999819D02*
X72842381Y-52999819D01*
X72842381Y-52999819D02*
X72985238Y-53047438D01*
X72985238Y-53047438D02*
X73080476Y-53142676D01*
X73080476Y-53142676D02*
X73128095Y-53237914D01*
X73128095Y-53237914D02*
X73175714Y-53428390D01*
X73175714Y-53428390D02*
X73175714Y-53571247D01*
X73175714Y-53571247D02*
X73128095Y-53761723D01*
X73128095Y-53761723D02*
X73080476Y-53856961D01*
X73080476Y-53856961D02*
X72985238Y-53952200D01*
X72985238Y-53952200D02*
X72842381Y-53999819D01*
X72842381Y-53999819D02*
X72604286Y-53999819D01*
X74128095Y-53999819D02*
X73556667Y-53999819D01*
X73842381Y-53999819D02*
X73842381Y-52999819D01*
X73842381Y-52999819D02*
X73747143Y-53142676D01*
X73747143Y-53142676D02*
X73651905Y-53237914D01*
X73651905Y-53237914D02*
X73556667Y-53285533D01*
X108751905Y-53719104D02*
X109228095Y-53719104D01*
X108656667Y-54004819D02*
X108990000Y-53004819D01*
X108990000Y-53004819D02*
X109323333Y-54004819D01*
X109656667Y-54004819D02*
X109656667Y-53004819D01*
X109656667Y-53004819D02*
X110228095Y-54004819D01*
X110228095Y-54004819D02*
X110228095Y-53004819D01*
X110704286Y-54004819D02*
X110704286Y-53004819D01*
X110704286Y-53004819D02*
X110942381Y-53004819D01*
X110942381Y-53004819D02*
X111085238Y-53052438D01*
X111085238Y-53052438D02*
X111180476Y-53147676D01*
X111180476Y-53147676D02*
X111228095Y-53242914D01*
X111228095Y-53242914D02*
X111275714Y-53433390D01*
X111275714Y-53433390D02*
X111275714Y-53576247D01*
X111275714Y-53576247D02*
X111228095Y-53766723D01*
X111228095Y-53766723D02*
X111180476Y-53861961D01*
X111180476Y-53861961D02*
X111085238Y-53957200D01*
X111085238Y-53957200D02*
X110942381Y-54004819D01*
X110942381Y-54004819D02*
X110704286Y-54004819D01*
X112132857Y-53338152D02*
X112132857Y-54004819D01*
X111894762Y-52957200D02*
X111656667Y-53671485D01*
X111656667Y-53671485D02*
X112275714Y-53671485D01*
X83351905Y-32129104D02*
X83828095Y-32129104D01*
X83256667Y-32414819D02*
X83590000Y-31414819D01*
X83590000Y-31414819D02*
X83923333Y-32414819D01*
X84256667Y-32414819D02*
X84256667Y-31414819D01*
X84256667Y-31414819D02*
X84828095Y-32414819D01*
X84828095Y-32414819D02*
X84828095Y-31414819D01*
X85304286Y-32414819D02*
X85304286Y-31414819D01*
X85304286Y-31414819D02*
X85542381Y-31414819D01*
X85542381Y-31414819D02*
X85685238Y-31462438D01*
X85685238Y-31462438D02*
X85780476Y-31557676D01*
X85780476Y-31557676D02*
X85828095Y-31652914D01*
X85828095Y-31652914D02*
X85875714Y-31843390D01*
X85875714Y-31843390D02*
X85875714Y-31986247D01*
X85875714Y-31986247D02*
X85828095Y-32176723D01*
X85828095Y-32176723D02*
X85780476Y-32271961D01*
X85780476Y-32271961D02*
X85685238Y-32367200D01*
X85685238Y-32367200D02*
X85542381Y-32414819D01*
X85542381Y-32414819D02*
X85304286Y-32414819D01*
X86256667Y-31510057D02*
X86304286Y-31462438D01*
X86304286Y-31462438D02*
X86399524Y-31414819D01*
X86399524Y-31414819D02*
X86637619Y-31414819D01*
X86637619Y-31414819D02*
X86732857Y-31462438D01*
X86732857Y-31462438D02*
X86780476Y-31510057D01*
X86780476Y-31510057D02*
X86828095Y-31605295D01*
X86828095Y-31605295D02*
X86828095Y-31700533D01*
X86828095Y-31700533D02*
X86780476Y-31843390D01*
X86780476Y-31843390D02*
X86209048Y-32414819D01*
X86209048Y-32414819D02*
X86828095Y-32414819D01*
D11*
%TO.C,J1*%
X129360000Y-45750000D02*
X129360000Y-44150000D01*
X129060000Y-45450000D02*
X126960000Y-45450000D01*
X129060000Y-30750000D02*
X129060000Y-45450000D01*
X127660000Y-45750000D02*
X129360000Y-45750000D01*
X121960000Y-45450000D02*
X119860000Y-45450000D01*
X119860000Y-45450000D02*
X119860000Y-43650000D01*
X119860000Y-39250000D02*
X119860000Y-30750000D01*
X119860000Y-30750000D02*
X129060000Y-30750000D01*
%TO.C,OR2*%
X92650000Y-54485000D02*
X92650000Y-72505000D01*
X92650000Y-72505000D02*
X102930000Y-72505000D01*
X95140000Y-54545000D02*
X95140000Y-72445000D01*
X95140000Y-72445000D02*
X100440000Y-72445000D01*
X96790000Y-54545000D02*
X95140000Y-54545000D01*
X100440000Y-54545000D02*
X98790000Y-54545000D01*
X100440000Y-72445000D02*
X100440000Y-54545000D01*
X102930000Y-54485000D02*
X92650000Y-54485000D01*
X102930000Y-72505000D02*
X102930000Y-54485000D01*
X96790000Y-54545000D02*
G75*
G03*
X98790000Y-54545000I1000000J0D01*
G01*
%TO.C,AND3*%
X105350000Y-32905000D02*
X105350000Y-50925000D01*
X105350000Y-50925000D02*
X115630000Y-50925000D01*
X107840000Y-32965000D02*
X107840000Y-50865000D01*
X107840000Y-50865000D02*
X113140000Y-50865000D01*
X109490000Y-32965000D02*
X107840000Y-32965000D01*
X113140000Y-32965000D02*
X111490000Y-32965000D01*
X113140000Y-50865000D02*
X113140000Y-32965000D01*
X115630000Y-32905000D02*
X105350000Y-32905000D01*
X115630000Y-50925000D02*
X115630000Y-32905000D01*
X109490000Y-32965000D02*
G75*
G03*
X111490000Y-32965000I1000000J0D01*
G01*
%TO.C,XOR3*%
X79950000Y-54485000D02*
X79950000Y-72505000D01*
X79950000Y-72505000D02*
X90230000Y-72505000D01*
X82440000Y-54545000D02*
X82440000Y-72445000D01*
X82440000Y-72445000D02*
X87740000Y-72445000D01*
X84090000Y-54545000D02*
X82440000Y-54545000D01*
X87740000Y-54545000D02*
X86090000Y-54545000D01*
X87740000Y-72445000D02*
X87740000Y-54545000D01*
X90230000Y-54485000D02*
X79950000Y-54485000D01*
X90230000Y-72505000D02*
X90230000Y-54485000D01*
X84090000Y-54545000D02*
G75*
G03*
X86090000Y-54545000I1000000J0D01*
G01*
%TO.C,U1*%
X129710000Y-71290000D02*
X129710000Y-55180000D01*
X129710000Y-71290000D02*
X119210000Y-71290000D01*
X129710000Y-55180000D02*
X119210000Y-55180000D01*
X127000000Y-55180000D02*
X127000000Y-53220000D01*
X124460000Y-55180000D02*
X124460000Y-53220000D01*
X121920000Y-55180000D02*
X121920000Y-53220000D01*
X119210000Y-71290000D02*
X119210000Y-55180000D01*
%TO.C,SW2*%
X77350000Y-91550000D02*
X78733000Y-91550000D01*
X77350000Y-91550000D02*
X77350000Y-90166000D01*
X77590000Y-91310000D02*
X100211000Y-91310000D01*
X77590000Y-91310000D02*
X77590000Y-81410000D01*
X100211000Y-91310000D02*
X100211000Y-81410000D01*
X79375000Y-88390000D02*
X80645000Y-88390000D01*
X79495000Y-88390000D02*
X79495000Y-87036667D01*
X79615000Y-88390000D02*
X79615000Y-87036667D01*
X79735000Y-88390000D02*
X79735000Y-87036667D01*
X79855000Y-88390000D02*
X79855000Y-87036667D01*
X79975000Y-88390000D02*
X79975000Y-87036667D01*
X80095000Y-88390000D02*
X80095000Y-87036667D01*
X80215000Y-88390000D02*
X80215000Y-87036667D01*
X80335000Y-88390000D02*
X80335000Y-87036667D01*
X80455000Y-88390000D02*
X80455000Y-87036667D01*
X80575000Y-88390000D02*
X80575000Y-87036667D01*
X80645000Y-88390000D02*
X80645000Y-84330000D01*
X81915000Y-88390000D02*
X83185000Y-88390000D01*
X82035000Y-88390000D02*
X82035000Y-87036667D01*
X82155000Y-88390000D02*
X82155000Y-87036667D01*
X82275000Y-88390000D02*
X82275000Y-87036667D01*
X82395000Y-88390000D02*
X82395000Y-87036667D01*
X82515000Y-88390000D02*
X82515000Y-87036667D01*
X82635000Y-88390000D02*
X82635000Y-87036667D01*
X82755000Y-88390000D02*
X82755000Y-87036667D01*
X82875000Y-88390000D02*
X82875000Y-87036667D01*
X82995000Y-88390000D02*
X82995000Y-87036667D01*
X83115000Y-88390000D02*
X83115000Y-87036667D01*
X83185000Y-88390000D02*
X83185000Y-84330000D01*
X84455000Y-88390000D02*
X85725000Y-88390000D01*
X84575000Y-88390000D02*
X84575000Y-87036667D01*
X84695000Y-88390000D02*
X84695000Y-87036667D01*
X84815000Y-88390000D02*
X84815000Y-87036667D01*
X84935000Y-88390000D02*
X84935000Y-87036667D01*
X85055000Y-88390000D02*
X85055000Y-87036667D01*
X85175000Y-88390000D02*
X85175000Y-87036667D01*
X85295000Y-88390000D02*
X85295000Y-87036667D01*
X85415000Y-88390000D02*
X85415000Y-87036667D01*
X85535000Y-88390000D02*
X85535000Y-87036667D01*
X85655000Y-88390000D02*
X85655000Y-87036667D01*
X85725000Y-88390000D02*
X85725000Y-84330000D01*
X86995000Y-88390000D02*
X88265000Y-88390000D01*
X87115000Y-88390000D02*
X87115000Y-87036667D01*
X87235000Y-88390000D02*
X87235000Y-87036667D01*
X87355000Y-88390000D02*
X87355000Y-87036667D01*
X87475000Y-88390000D02*
X87475000Y-87036667D01*
X87595000Y-88390000D02*
X87595000Y-87036667D01*
X87715000Y-88390000D02*
X87715000Y-87036667D01*
X87835000Y-88390000D02*
X87835000Y-87036667D01*
X87955000Y-88390000D02*
X87955000Y-87036667D01*
X88075000Y-88390000D02*
X88075000Y-87036667D01*
X88195000Y-88390000D02*
X88195000Y-87036667D01*
X88265000Y-88390000D02*
X88265000Y-84330000D01*
X89535000Y-88390000D02*
X90805000Y-88390000D01*
X89655000Y-88390000D02*
X89655000Y-87036667D01*
X89775000Y-88390000D02*
X89775000Y-87036667D01*
X89895000Y-88390000D02*
X89895000Y-87036667D01*
X90015000Y-88390000D02*
X90015000Y-87036667D01*
X90135000Y-88390000D02*
X90135000Y-87036667D01*
X90255000Y-88390000D02*
X90255000Y-87036667D01*
X90375000Y-88390000D02*
X90375000Y-87036667D01*
X90495000Y-88390000D02*
X90495000Y-87036667D01*
X90615000Y-88390000D02*
X90615000Y-87036667D01*
X90735000Y-88390000D02*
X90735000Y-87036667D01*
X90805000Y-88390000D02*
X90805000Y-84330000D01*
X92075000Y-88390000D02*
X93345000Y-88390000D01*
X92195000Y-88390000D02*
X92195000Y-87036667D01*
X92315000Y-88390000D02*
X92315000Y-87036667D01*
X92435000Y-88390000D02*
X92435000Y-87036667D01*
X92555000Y-88390000D02*
X92555000Y-87036667D01*
X92675000Y-88390000D02*
X92675000Y-87036667D01*
X92795000Y-88390000D02*
X92795000Y-87036667D01*
X92915000Y-88390000D02*
X92915000Y-87036667D01*
X93035000Y-88390000D02*
X93035000Y-87036667D01*
X93155000Y-88390000D02*
X93155000Y-87036667D01*
X93275000Y-88390000D02*
X93275000Y-87036667D01*
X93345000Y-88390000D02*
X93345000Y-84330000D01*
X94615000Y-88390000D02*
X95885000Y-88390000D01*
X94735000Y-88390000D02*
X94735000Y-87036667D01*
X94855000Y-88390000D02*
X94855000Y-87036667D01*
X94975000Y-88390000D02*
X94975000Y-87036667D01*
X95095000Y-88390000D02*
X95095000Y-87036667D01*
X95215000Y-88390000D02*
X95215000Y-87036667D01*
X95335000Y-88390000D02*
X95335000Y-87036667D01*
X95455000Y-88390000D02*
X95455000Y-87036667D01*
X95575000Y-88390000D02*
X95575000Y-87036667D01*
X95695000Y-88390000D02*
X95695000Y-87036667D01*
X95815000Y-88390000D02*
X95815000Y-87036667D01*
X95885000Y-88390000D02*
X95885000Y-84330000D01*
X97155000Y-88390000D02*
X98425000Y-88390000D01*
X97275000Y-88390000D02*
X97275000Y-87036667D01*
X97395000Y-88390000D02*
X97395000Y-87036667D01*
X97515000Y-88390000D02*
X97515000Y-87036667D01*
X97635000Y-88390000D02*
X97635000Y-87036667D01*
X97755000Y-88390000D02*
X97755000Y-87036667D01*
X97875000Y-88390000D02*
X97875000Y-87036667D01*
X97995000Y-88390000D02*
X97995000Y-87036667D01*
X98115000Y-88390000D02*
X98115000Y-87036667D01*
X98235000Y-88390000D02*
X98235000Y-87036667D01*
X98355000Y-88390000D02*
X98355000Y-87036667D01*
X98425000Y-88390000D02*
X98425000Y-84330000D01*
X79375000Y-87036667D02*
X80645000Y-87036667D01*
X81915000Y-87036667D02*
X83185000Y-87036667D01*
X84455000Y-87036667D02*
X85725000Y-87036667D01*
X86995000Y-87036667D02*
X88265000Y-87036667D01*
X89535000Y-87036667D02*
X90805000Y-87036667D01*
X92075000Y-87036667D02*
X93345000Y-87036667D01*
X94615000Y-87036667D02*
X95885000Y-87036667D01*
X97155000Y-87036667D02*
X98425000Y-87036667D01*
X79375000Y-84330000D02*
X79375000Y-88390000D01*
X80645000Y-84330000D02*
X79375000Y-84330000D01*
X81915000Y-84330000D02*
X81915000Y-88390000D01*
X83185000Y-84330000D02*
X81915000Y-84330000D01*
X84455000Y-84330000D02*
X84455000Y-88390000D01*
X85725000Y-84330000D02*
X84455000Y-84330000D01*
X86995000Y-84330000D02*
X86995000Y-88390000D01*
X88265000Y-84330000D02*
X86995000Y-84330000D01*
X89535000Y-84330000D02*
X89535000Y-88390000D01*
X90805000Y-84330000D02*
X89535000Y-84330000D01*
X92075000Y-84330000D02*
X92075000Y-88390000D01*
X93345000Y-84330000D02*
X92075000Y-84330000D01*
X94615000Y-84330000D02*
X94615000Y-88390000D01*
X95885000Y-84330000D02*
X94615000Y-84330000D01*
X97155000Y-84330000D02*
X97155000Y-88390000D01*
X98425000Y-84330000D02*
X97155000Y-84330000D01*
X77590000Y-81410000D02*
X100211000Y-81410000D01*
%TO.C,RN2*%
X100500000Y-78870000D02*
X100500000Y-76070000D01*
X100500000Y-76070000D02*
X77300000Y-76070000D01*
X97790000Y-78870000D02*
X97790000Y-76070000D01*
X77300000Y-78870000D02*
X100500000Y-78870000D01*
X77300000Y-76070000D02*
X77300000Y-78870000D01*
%TO.C,OR1*%
X67250000Y-32900000D02*
X67250000Y-50920000D01*
X67250000Y-50920000D02*
X77530000Y-50920000D01*
X69740000Y-32960000D02*
X69740000Y-50860000D01*
X69740000Y-50860000D02*
X75040000Y-50860000D01*
X71390000Y-32960000D02*
X69740000Y-32960000D01*
X75040000Y-32960000D02*
X73390000Y-32960000D01*
X75040000Y-50860000D02*
X75040000Y-32960000D01*
X77530000Y-32900000D02*
X67250000Y-32900000D01*
X77530000Y-50920000D02*
X77530000Y-32900000D01*
X71390000Y-32960000D02*
G75*
G03*
X73390000Y-32960000I1000000J0D01*
G01*
%TO.C,SW1*%
X53220000Y-91550000D02*
X54603000Y-91550000D01*
X53220000Y-91550000D02*
X53220000Y-90166000D01*
X53460000Y-91310000D02*
X76081000Y-91310000D01*
X53460000Y-91310000D02*
X53460000Y-81410000D01*
X76081000Y-91310000D02*
X76081000Y-81410000D01*
X55245000Y-88390000D02*
X56515000Y-88390000D01*
X55365000Y-88390000D02*
X55365000Y-87036667D01*
X55485000Y-88390000D02*
X55485000Y-87036667D01*
X55605000Y-88390000D02*
X55605000Y-87036667D01*
X55725000Y-88390000D02*
X55725000Y-87036667D01*
X55845000Y-88390000D02*
X55845000Y-87036667D01*
X55965000Y-88390000D02*
X55965000Y-87036667D01*
X56085000Y-88390000D02*
X56085000Y-87036667D01*
X56205000Y-88390000D02*
X56205000Y-87036667D01*
X56325000Y-88390000D02*
X56325000Y-87036667D01*
X56445000Y-88390000D02*
X56445000Y-87036667D01*
X56515000Y-88390000D02*
X56515000Y-84330000D01*
X57785000Y-88390000D02*
X59055000Y-88390000D01*
X57905000Y-88390000D02*
X57905000Y-87036667D01*
X58025000Y-88390000D02*
X58025000Y-87036667D01*
X58145000Y-88390000D02*
X58145000Y-87036667D01*
X58265000Y-88390000D02*
X58265000Y-87036667D01*
X58385000Y-88390000D02*
X58385000Y-87036667D01*
X58505000Y-88390000D02*
X58505000Y-87036667D01*
X58625000Y-88390000D02*
X58625000Y-87036667D01*
X58745000Y-88390000D02*
X58745000Y-87036667D01*
X58865000Y-88390000D02*
X58865000Y-87036667D01*
X58985000Y-88390000D02*
X58985000Y-87036667D01*
X59055000Y-88390000D02*
X59055000Y-84330000D01*
X60325000Y-88390000D02*
X61595000Y-88390000D01*
X60445000Y-88390000D02*
X60445000Y-87036667D01*
X60565000Y-88390000D02*
X60565000Y-87036667D01*
X60685000Y-88390000D02*
X60685000Y-87036667D01*
X60805000Y-88390000D02*
X60805000Y-87036667D01*
X60925000Y-88390000D02*
X60925000Y-87036667D01*
X61045000Y-88390000D02*
X61045000Y-87036667D01*
X61165000Y-88390000D02*
X61165000Y-87036667D01*
X61285000Y-88390000D02*
X61285000Y-87036667D01*
X61405000Y-88390000D02*
X61405000Y-87036667D01*
X61525000Y-88390000D02*
X61525000Y-87036667D01*
X61595000Y-88390000D02*
X61595000Y-84330000D01*
X62865000Y-88390000D02*
X64135000Y-88390000D01*
X62985000Y-88390000D02*
X62985000Y-87036667D01*
X63105000Y-88390000D02*
X63105000Y-87036667D01*
X63225000Y-88390000D02*
X63225000Y-87036667D01*
X63345000Y-88390000D02*
X63345000Y-87036667D01*
X63465000Y-88390000D02*
X63465000Y-87036667D01*
X63585000Y-88390000D02*
X63585000Y-87036667D01*
X63705000Y-88390000D02*
X63705000Y-87036667D01*
X63825000Y-88390000D02*
X63825000Y-87036667D01*
X63945000Y-88390000D02*
X63945000Y-87036667D01*
X64065000Y-88390000D02*
X64065000Y-87036667D01*
X64135000Y-88390000D02*
X64135000Y-84330000D01*
X65405000Y-88390000D02*
X66675000Y-88390000D01*
X65525000Y-88390000D02*
X65525000Y-87036667D01*
X65645000Y-88390000D02*
X65645000Y-87036667D01*
X65765000Y-88390000D02*
X65765000Y-87036667D01*
X65885000Y-88390000D02*
X65885000Y-87036667D01*
X66005000Y-88390000D02*
X66005000Y-87036667D01*
X66125000Y-88390000D02*
X66125000Y-87036667D01*
X66245000Y-88390000D02*
X66245000Y-87036667D01*
X66365000Y-88390000D02*
X66365000Y-87036667D01*
X66485000Y-88390000D02*
X66485000Y-87036667D01*
X66605000Y-88390000D02*
X66605000Y-87036667D01*
X66675000Y-88390000D02*
X66675000Y-84330000D01*
X67945000Y-88390000D02*
X69215000Y-88390000D01*
X68065000Y-88390000D02*
X68065000Y-87036667D01*
X68185000Y-88390000D02*
X68185000Y-87036667D01*
X68305000Y-88390000D02*
X68305000Y-87036667D01*
X68425000Y-88390000D02*
X68425000Y-87036667D01*
X68545000Y-88390000D02*
X68545000Y-87036667D01*
X68665000Y-88390000D02*
X68665000Y-87036667D01*
X68785000Y-88390000D02*
X68785000Y-87036667D01*
X68905000Y-88390000D02*
X68905000Y-87036667D01*
X69025000Y-88390000D02*
X69025000Y-87036667D01*
X69145000Y-88390000D02*
X69145000Y-87036667D01*
X69215000Y-88390000D02*
X69215000Y-84330000D01*
X70485000Y-88390000D02*
X71755000Y-88390000D01*
X70605000Y-88390000D02*
X70605000Y-87036667D01*
X70725000Y-88390000D02*
X70725000Y-87036667D01*
X70845000Y-88390000D02*
X70845000Y-87036667D01*
X70965000Y-88390000D02*
X70965000Y-87036667D01*
X71085000Y-88390000D02*
X71085000Y-87036667D01*
X71205000Y-88390000D02*
X71205000Y-87036667D01*
X71325000Y-88390000D02*
X71325000Y-87036667D01*
X71445000Y-88390000D02*
X71445000Y-87036667D01*
X71565000Y-88390000D02*
X71565000Y-87036667D01*
X71685000Y-88390000D02*
X71685000Y-87036667D01*
X71755000Y-88390000D02*
X71755000Y-84330000D01*
X73025000Y-88390000D02*
X74295000Y-88390000D01*
X73145000Y-88390000D02*
X73145000Y-87036667D01*
X73265000Y-88390000D02*
X73265000Y-87036667D01*
X73385000Y-88390000D02*
X73385000Y-87036667D01*
X73505000Y-88390000D02*
X73505000Y-87036667D01*
X73625000Y-88390000D02*
X73625000Y-87036667D01*
X73745000Y-88390000D02*
X73745000Y-87036667D01*
X73865000Y-88390000D02*
X73865000Y-87036667D01*
X73985000Y-88390000D02*
X73985000Y-87036667D01*
X74105000Y-88390000D02*
X74105000Y-87036667D01*
X74225000Y-88390000D02*
X74225000Y-87036667D01*
X74295000Y-88390000D02*
X74295000Y-84330000D01*
X55245000Y-87036667D02*
X56515000Y-87036667D01*
X57785000Y-87036667D02*
X59055000Y-87036667D01*
X60325000Y-87036667D02*
X61595000Y-87036667D01*
X62865000Y-87036667D02*
X64135000Y-87036667D01*
X65405000Y-87036667D02*
X66675000Y-87036667D01*
X67945000Y-87036667D02*
X69215000Y-87036667D01*
X70485000Y-87036667D02*
X71755000Y-87036667D01*
X73025000Y-87036667D02*
X74295000Y-87036667D01*
X55245000Y-84330000D02*
X55245000Y-88390000D01*
X56515000Y-84330000D02*
X55245000Y-84330000D01*
X57785000Y-84330000D02*
X57785000Y-88390000D01*
X59055000Y-84330000D02*
X57785000Y-84330000D01*
X60325000Y-84330000D02*
X60325000Y-88390000D01*
X61595000Y-84330000D02*
X60325000Y-84330000D01*
X62865000Y-84330000D02*
X62865000Y-88390000D01*
X64135000Y-84330000D02*
X62865000Y-84330000D01*
X65405000Y-84330000D02*
X65405000Y-88390000D01*
X66675000Y-84330000D02*
X65405000Y-84330000D01*
X67945000Y-84330000D02*
X67945000Y-88390000D01*
X69215000Y-84330000D02*
X67945000Y-84330000D01*
X70485000Y-84330000D02*
X70485000Y-88390000D01*
X71755000Y-84330000D02*
X70485000Y-84330000D01*
X73025000Y-84330000D02*
X73025000Y-88390000D01*
X74295000Y-84330000D02*
X73025000Y-84330000D01*
X53460000Y-81410000D02*
X76081000Y-81410000D01*
%TO.C,RN1*%
X76370000Y-78870000D02*
X76370000Y-76070000D01*
X76370000Y-76070000D02*
X53170000Y-76070000D01*
X73660000Y-78870000D02*
X73660000Y-76070000D01*
X53170000Y-78870000D02*
X76370000Y-78870000D01*
X53170000Y-76070000D02*
X53170000Y-78870000D01*
%TO.C,XOR2*%
X54550000Y-54490000D02*
X54550000Y-72510000D01*
X54550000Y-72510000D02*
X64830000Y-72510000D01*
X57040000Y-54550000D02*
X57040000Y-72450000D01*
X57040000Y-72450000D02*
X62340000Y-72450000D01*
X58690000Y-54550000D02*
X57040000Y-54550000D01*
X62340000Y-54550000D02*
X60690000Y-54550000D01*
X62340000Y-72450000D02*
X62340000Y-54550000D01*
X64830000Y-54490000D02*
X54550000Y-54490000D01*
X64830000Y-72510000D02*
X64830000Y-54490000D01*
X58690000Y-54550000D02*
G75*
G03*
X60690000Y-54550000I1000000J0D01*
G01*
%TO.C,BAR1*%
X103710000Y-91870000D02*
X105410000Y-91870000D01*
X104000000Y-91580000D02*
X104000000Y-81140000D01*
X129680000Y-91580000D02*
X104000000Y-91580000D01*
X103710000Y-90170000D02*
X103710000Y-91870000D01*
X104000000Y-81140000D02*
X129680000Y-81140000D01*
X129680000Y-81140000D02*
X129680000Y-91580000D01*
%TO.C,XOR4*%
X92650000Y-32900000D02*
X92650000Y-50920000D01*
X92650000Y-50920000D02*
X102930000Y-50920000D01*
X95140000Y-32960000D02*
X95140000Y-50860000D01*
X95140000Y-50860000D02*
X100440000Y-50860000D01*
X96790000Y-32960000D02*
X95140000Y-32960000D01*
X100440000Y-32960000D02*
X98790000Y-32960000D01*
X100440000Y-50860000D02*
X100440000Y-32960000D01*
X102930000Y-32900000D02*
X92650000Y-32900000D01*
X102930000Y-50920000D02*
X102930000Y-32900000D01*
X96790000Y-32960000D02*
G75*
G03*
X98790000Y-32960000I1000000J0D01*
G01*
%TO.C,RN3*%
X105240000Y-76070000D02*
X105240000Y-78870000D01*
X105240000Y-78870000D02*
X128440000Y-78870000D01*
X107950000Y-76070000D02*
X107950000Y-78870000D01*
X128440000Y-76070000D02*
X105240000Y-76070000D01*
X128440000Y-78870000D02*
X128440000Y-76070000D01*
%TO.C,XOR1*%
X54550000Y-32900000D02*
X54550000Y-50920000D01*
X54550000Y-50920000D02*
X64830000Y-50920000D01*
X57040000Y-32960000D02*
X57040000Y-50860000D01*
X57040000Y-50860000D02*
X62340000Y-50860000D01*
X58690000Y-32960000D02*
X57040000Y-32960000D01*
X62340000Y-32960000D02*
X60690000Y-32960000D01*
X62340000Y-50860000D02*
X62340000Y-32960000D01*
X64830000Y-32900000D02*
X54550000Y-32900000D01*
X64830000Y-50920000D02*
X64830000Y-32900000D01*
X58690000Y-32960000D02*
G75*
G03*
X60690000Y-32960000I1000000J0D01*
G01*
%TO.C,AND1*%
X67250000Y-54485000D02*
X67250000Y-72505000D01*
X67250000Y-72505000D02*
X77530000Y-72505000D01*
X69740000Y-54545000D02*
X69740000Y-72445000D01*
X69740000Y-72445000D02*
X75040000Y-72445000D01*
X71390000Y-54545000D02*
X69740000Y-54545000D01*
X75040000Y-54545000D02*
X73390000Y-54545000D01*
X75040000Y-72445000D02*
X75040000Y-54545000D01*
X77530000Y-54485000D02*
X67250000Y-54485000D01*
X77530000Y-72505000D02*
X77530000Y-54485000D01*
X71390000Y-54545000D02*
G75*
G03*
X73390000Y-54545000I1000000J0D01*
G01*
%TO.C,AND4*%
X105350000Y-54490000D02*
X105350000Y-72510000D01*
X105350000Y-72510000D02*
X115630000Y-72510000D01*
X107840000Y-54550000D02*
X107840000Y-72450000D01*
X107840000Y-72450000D02*
X113140000Y-72450000D01*
X109490000Y-54550000D02*
X107840000Y-54550000D01*
X113140000Y-54550000D02*
X111490000Y-54550000D01*
X113140000Y-72450000D02*
X113140000Y-54550000D01*
X115630000Y-54490000D02*
X105350000Y-54490000D01*
X115630000Y-72510000D02*
X115630000Y-54490000D01*
X109490000Y-54550000D02*
G75*
G03*
X111490000Y-54550000I1000000J0D01*
G01*
%TO.C,AND2*%
X79950000Y-32900000D02*
X79950000Y-50920000D01*
X79950000Y-50920000D02*
X90230000Y-50920000D01*
X82440000Y-32960000D02*
X82440000Y-50860000D01*
X82440000Y-50860000D02*
X87740000Y-50860000D01*
X84090000Y-32960000D02*
X82440000Y-32960000D01*
X87740000Y-32960000D02*
X86090000Y-32960000D01*
X87740000Y-50860000D02*
X87740000Y-32960000D01*
X90230000Y-32900000D02*
X79950000Y-32900000D01*
X90230000Y-50920000D02*
X90230000Y-32900000D01*
X84090000Y-32960000D02*
G75*
G03*
X86090000Y-32960000I1000000J0D01*
G01*
%TD*%
M02*
